<?xml version="1.0" encoding="utf-8" standalone="no"?>
<!DOCTYPE svg PUBLIC "-//W3C//DTD SVG 1.1//EN"
  "http://www.w3.org/Graphics/SVG/1.1/DTD/svg11.dtd">
<!-- Created with matplotlib (http://matplotlib.org/) -->
<svg height="288pt" version="1.1" viewBox="0 0 432 288" width="432pt" xmlns="http://www.w3.org/2000/svg" xmlns:xlink="http://www.w3.org/1999/xlink">
 <defs>
  <style type="text/css">
*{stroke-linecap:butt;stroke-linejoin:round;}
  </style>
 </defs>
 <g id="figure_1">
  <g id="patch_1">
   <path d="M 0 288 
L 432 288 
L 432 0 
L 0 0 
z
" style="fill:#ffffff;"/>
  </g>
  <g id="axes_1">
   <g id="patch_2">
    <path d="M 54 116.693333 
L 388.8 116.693333 
L 388.8 34.56 
L 54 34.56 
z
" style="fill:#eaeaf2;"/>
   </g>
   <g id="matplotlib.axis_1">
    <g id="xtick_1">
     <g id="line2d_1">
      <path clip-path="url(#p6f6d49699a)" d="M 63.783117 116.693333 
L 63.783117 34.56 
" style="fill:none;stroke:#ffffff;stroke-linecap:round;stroke-width:0.8;"/>
     </g>
     <g id="line2d_2"/>
     <g id="text_1">
      <!-- 1950 -->
      <defs>
       <path d="M 37.25 0 
L 28.46875 0 
L 28.46875 56 
Q 25.296875 52.984375 20.140625 49.953125 
Q 14.984375 46.921875 10.890625 45.40625 
L 10.890625 53.90625 
Q 18.265625 57.375 23.78125 62.296875 
Q 29.296875 67.234375 31.59375 71.875 
L 37.25 71.875 
z
" id="ArialMT-31"/>
       <path d="M 5.46875 16.546875 
L 13.921875 17.328125 
Q 14.984375 11.375 18.015625 8.6875 
Q 21.046875 6 25.78125 6 
Q 29.828125 6 32.875 7.859375 
Q 35.9375 9.71875 37.890625 12.8125 
Q 39.84375 15.921875 41.15625 21.1875 
Q 42.484375 26.46875 42.484375 31.9375 
Q 42.484375 32.515625 42.4375 33.6875 
Q 39.796875 29.5 35.234375 26.875 
Q 30.671875 24.265625 25.34375 24.265625 
Q 16.453125 24.265625 10.296875 30.703125 
Q 4.15625 37.15625 4.15625 47.703125 
Q 4.15625 58.59375 10.578125 65.234375 
Q 17 71.875 26.65625 71.875 
Q 33.640625 71.875 39.421875 68.109375 
Q 45.21875 64.359375 48.21875 57.390625 
Q 51.21875 50.4375 51.21875 37.25 
Q 51.21875 23.53125 48.234375 15.40625 
Q 45.265625 7.28125 39.375 3.03125 
Q 33.5 -1.21875 25.59375 -1.21875 
Q 17.1875 -1.21875 11.859375 3.4375 
Q 6.546875 8.109375 5.46875 16.546875 
z
M 41.453125 48.140625 
Q 41.453125 55.71875 37.421875 60.15625 
Q 33.40625 64.59375 27.734375 64.59375 
Q 21.875 64.59375 17.53125 59.8125 
Q 13.1875 55.03125 13.1875 47.40625 
Q 13.1875 40.578125 17.3125 36.296875 
Q 21.4375 32.03125 27.484375 32.03125 
Q 33.59375 32.03125 37.515625 36.296875 
Q 41.453125 40.578125 41.453125 48.140625 
z
" id="ArialMT-39"/>
       <path d="M 4.15625 18.75 
L 13.375 19.53125 
Q 14.40625 12.796875 18.140625 9.390625 
Q 21.875 6 27.15625 6 
Q 33.5 6 37.890625 10.78125 
Q 42.28125 15.578125 42.28125 23.484375 
Q 42.28125 31 38.0625 35.34375 
Q 33.84375 39.703125 27 39.703125 
Q 22.75 39.703125 19.328125 37.765625 
Q 15.921875 35.84375 13.96875 32.765625 
L 5.71875 33.84375 
L 12.640625 70.609375 
L 48.25 70.609375 
L 48.25 62.203125 
L 19.671875 62.203125 
L 15.828125 42.96875 
Q 22.265625 47.46875 29.34375 47.46875 
Q 38.71875 47.46875 45.15625 40.96875 
Q 51.609375 34.46875 51.609375 24.265625 
Q 51.609375 14.546875 45.953125 7.46875 
Q 39.0625 -1.21875 27.15625 -1.21875 
Q 17.390625 -1.21875 11.203125 4.25 
Q 5.03125 9.71875 4.15625 18.75 
z
" id="ArialMT-35"/>
       <path d="M 4.15625 35.296875 
Q 4.15625 48 6.765625 55.734375 
Q 9.375 63.484375 14.515625 67.671875 
Q 19.671875 71.875 27.484375 71.875 
Q 33.25 71.875 37.59375 69.546875 
Q 41.9375 67.234375 44.765625 62.859375 
Q 47.609375 58.5 49.21875 52.21875 
Q 50.828125 45.953125 50.828125 35.296875 
Q 50.828125 22.703125 48.234375 14.96875 
Q 45.65625 7.234375 40.5 3 
Q 35.359375 -1.21875 27.484375 -1.21875 
Q 17.140625 -1.21875 11.234375 6.203125 
Q 4.15625 15.140625 4.15625 35.296875 
z
M 13.1875 35.296875 
Q 13.1875 17.671875 17.3125 11.828125 
Q 21.4375 6 27.484375 6 
Q 33.546875 6 37.671875 11.859375 
Q 41.796875 17.71875 41.796875 35.296875 
Q 41.796875 52.984375 37.671875 58.78125 
Q 33.546875 64.59375 27.390625 64.59375 
Q 21.34375 64.59375 17.71875 59.46875 
Q 13.1875 52.9375 13.1875 35.296875 
z
" id="ArialMT-30"/>
      </defs>
      <g style="fill:#262626;" transform="translate(52.661242 127.351146)scale(0.1 -0.1)">
       <use xlink:href="#ArialMT-31"/>
       <use x="55.615234" xlink:href="#ArialMT-39"/>
       <use x="111.230469" xlink:href="#ArialMT-35"/>
       <use x="166.845703" xlink:href="#ArialMT-30"/>
      </g>
     </g>
    </g>
    <g id="xtick_2">
     <g id="line2d_3">
      <path clip-path="url(#p6f6d49699a)" d="M 69.218182 116.693333 
L 69.218182 34.56 
" style="fill:none;stroke:#ffffff;stroke-linecap:round;stroke-width:0.8;"/>
     </g>
     <g id="line2d_4"/>
    </g>
    <g id="xtick_3">
     <g id="line2d_5">
      <path clip-path="url(#p6f6d49699a)" d="M 74.653247 116.693333 
L 74.653247 34.56 
" style="fill:none;stroke:#ffffff;stroke-linecap:round;stroke-width:0.8;"/>
     </g>
     <g id="line2d_6"/>
    </g>
    <g id="xtick_4">
     <g id="line2d_7">
      <path clip-path="url(#p6f6d49699a)" d="M 80.088312 116.693333 
L 80.088312 34.56 
" style="fill:none;stroke:#ffffff;stroke-linecap:round;stroke-width:0.8;"/>
     </g>
     <g id="line2d_8"/>
    </g>
    <g id="xtick_5">
     <g id="line2d_9">
      <path clip-path="url(#p6f6d49699a)" d="M 85.523377 116.693333 
L 85.523377 34.56 
" style="fill:none;stroke:#ffffff;stroke-linecap:round;stroke-width:0.8;"/>
     </g>
     <g id="line2d_10"/>
    </g>
    <g id="xtick_6">
     <g id="line2d_11">
      <path clip-path="url(#p6f6d49699a)" d="M 90.958442 116.693333 
L 90.958442 34.56 
" style="fill:none;stroke:#ffffff;stroke-linecap:round;stroke-width:0.8;"/>
     </g>
     <g id="line2d_12"/>
     <g id="text_2">
      <!-- 1955 -->
      <g style="fill:#262626;" transform="translate(79.836567 127.351146)scale(0.1 -0.1)">
       <use xlink:href="#ArialMT-31"/>
       <use x="55.615234" xlink:href="#ArialMT-39"/>
       <use x="111.230469" xlink:href="#ArialMT-35"/>
       <use x="166.845703" xlink:href="#ArialMT-35"/>
      </g>
     </g>
    </g>
    <g id="xtick_7">
     <g id="line2d_13">
      <path clip-path="url(#p6f6d49699a)" d="M 96.393506 116.693333 
L 96.393506 34.56 
" style="fill:none;stroke:#ffffff;stroke-linecap:round;stroke-width:0.8;"/>
     </g>
     <g id="line2d_14"/>
    </g>
    <g id="xtick_8">
     <g id="line2d_15">
      <path clip-path="url(#p6f6d49699a)" d="M 101.828571 116.693333 
L 101.828571 34.56 
" style="fill:none;stroke:#ffffff;stroke-linecap:round;stroke-width:0.8;"/>
     </g>
     <g id="line2d_16"/>
    </g>
    <g id="xtick_9">
     <g id="line2d_17">
      <path clip-path="url(#p6f6d49699a)" d="M 107.263636 116.693333 
L 107.263636 34.56 
" style="fill:none;stroke:#ffffff;stroke-linecap:round;stroke-width:0.8;"/>
     </g>
     <g id="line2d_18"/>
    </g>
    <g id="xtick_10">
     <g id="line2d_19">
      <path clip-path="url(#p6f6d49699a)" d="M 112.698701 116.693333 
L 112.698701 34.56 
" style="fill:none;stroke:#ffffff;stroke-linecap:round;stroke-width:0.8;"/>
     </g>
     <g id="line2d_20"/>
    </g>
    <g id="xtick_11">
     <g id="line2d_21">
      <path clip-path="url(#p6f6d49699a)" d="M 118.133766 116.693333 
L 118.133766 34.56 
" style="fill:none;stroke:#ffffff;stroke-linecap:round;stroke-width:0.8;"/>
     </g>
     <g id="line2d_22"/>
     <g id="text_3">
      <!-- 1960 -->
      <defs>
       <path d="M 49.75 54.046875 
L 41.015625 53.375 
Q 39.84375 58.546875 37.703125 60.890625 
Q 34.125 64.65625 28.90625 64.65625 
Q 24.703125 64.65625 21.53125 62.3125 
Q 17.390625 59.28125 14.984375 53.46875 
Q 12.59375 47.65625 12.5 36.921875 
Q 15.671875 41.75 20.265625 44.09375 
Q 24.859375 46.4375 29.890625 46.4375 
Q 38.671875 46.4375 44.84375 39.96875 
Q 51.03125 33.5 51.03125 23.25 
Q 51.03125 16.5 48.125 10.71875 
Q 45.21875 4.9375 40.140625 1.859375 
Q 35.0625 -1.21875 28.609375 -1.21875 
Q 17.625 -1.21875 10.6875 6.859375 
Q 3.765625 14.9375 3.765625 33.5 
Q 3.765625 54.25 11.421875 63.671875 
Q 18.109375 71.875 29.4375 71.875 
Q 37.890625 71.875 43.28125 67.140625 
Q 48.6875 62.40625 49.75 54.046875 
z
M 13.875 23.1875 
Q 13.875 18.65625 15.796875 14.5 
Q 17.71875 10.359375 21.1875 8.171875 
Q 24.65625 6 28.46875 6 
Q 34.03125 6 38.03125 10.484375 
Q 42.046875 14.984375 42.046875 22.703125 
Q 42.046875 30.125 38.078125 34.390625 
Q 34.125 38.671875 28.125 38.671875 
Q 22.171875 38.671875 18.015625 34.390625 
Q 13.875 30.125 13.875 23.1875 
z
" id="ArialMT-36"/>
      </defs>
      <g style="fill:#262626;" transform="translate(107.011891 127.351146)scale(0.1 -0.1)">
       <use xlink:href="#ArialMT-31"/>
       <use x="55.615234" xlink:href="#ArialMT-39"/>
       <use x="111.230469" xlink:href="#ArialMT-36"/>
       <use x="166.845703" xlink:href="#ArialMT-30"/>
      </g>
     </g>
    </g>
    <g id="xtick_12">
     <g id="line2d_23">
      <path clip-path="url(#p6f6d49699a)" d="M 123.568831 116.693333 
L 123.568831 34.56 
" style="fill:none;stroke:#ffffff;stroke-linecap:round;stroke-width:0.8;"/>
     </g>
     <g id="line2d_24"/>
    </g>
    <g id="xtick_13">
     <g id="line2d_25">
      <path clip-path="url(#p6f6d49699a)" d="M 129.003896 116.693333 
L 129.003896 34.56 
" style="fill:none;stroke:#ffffff;stroke-linecap:round;stroke-width:0.8;"/>
     </g>
     <g id="line2d_26"/>
    </g>
    <g id="xtick_14">
     <g id="line2d_27">
      <path clip-path="url(#p6f6d49699a)" d="M 134.438961 116.693333 
L 134.438961 34.56 
" style="fill:none;stroke:#ffffff;stroke-linecap:round;stroke-width:0.8;"/>
     </g>
     <g id="line2d_28"/>
    </g>
    <g id="xtick_15">
     <g id="line2d_29">
      <path clip-path="url(#p6f6d49699a)" d="M 139.874026 116.693333 
L 139.874026 34.56 
" style="fill:none;stroke:#ffffff;stroke-linecap:round;stroke-width:0.8;"/>
     </g>
     <g id="line2d_30"/>
    </g>
    <g id="xtick_16">
     <g id="line2d_31">
      <path clip-path="url(#p6f6d49699a)" d="M 145.309091 116.693333 
L 145.309091 34.56 
" style="fill:none;stroke:#ffffff;stroke-linecap:round;stroke-width:0.8;"/>
     </g>
     <g id="line2d_32"/>
     <g id="text_4">
      <!-- 1965 -->
      <g style="fill:#262626;" transform="translate(134.187216 127.351146)scale(0.1 -0.1)">
       <use xlink:href="#ArialMT-31"/>
       <use x="55.615234" xlink:href="#ArialMT-39"/>
       <use x="111.230469" xlink:href="#ArialMT-36"/>
       <use x="166.845703" xlink:href="#ArialMT-35"/>
      </g>
     </g>
    </g>
    <g id="xtick_17">
     <g id="line2d_33">
      <path clip-path="url(#p6f6d49699a)" d="M 150.744156 116.693333 
L 150.744156 34.56 
" style="fill:none;stroke:#ffffff;stroke-linecap:round;stroke-width:0.8;"/>
     </g>
     <g id="line2d_34"/>
    </g>
    <g id="xtick_18">
     <g id="line2d_35">
      <path clip-path="url(#p6f6d49699a)" d="M 156.179221 116.693333 
L 156.179221 34.56 
" style="fill:none;stroke:#ffffff;stroke-linecap:round;stroke-width:0.8;"/>
     </g>
     <g id="line2d_36"/>
    </g>
    <g id="xtick_19">
     <g id="line2d_37">
      <path clip-path="url(#p6f6d49699a)" d="M 161.614286 116.693333 
L 161.614286 34.56 
" style="fill:none;stroke:#ffffff;stroke-linecap:round;stroke-width:0.8;"/>
     </g>
     <g id="line2d_38"/>
    </g>
    <g id="xtick_20">
     <g id="line2d_39">
      <path clip-path="url(#p6f6d49699a)" d="M 167.049351 116.693333 
L 167.049351 34.56 
" style="fill:none;stroke:#ffffff;stroke-linecap:round;stroke-width:0.8;"/>
     </g>
     <g id="line2d_40"/>
    </g>
    <g id="xtick_21">
     <g id="line2d_41">
      <path clip-path="url(#p6f6d49699a)" d="M 172.484416 116.693333 
L 172.484416 34.56 
" style="fill:none;stroke:#ffffff;stroke-linecap:round;stroke-width:0.8;"/>
     </g>
     <g id="line2d_42"/>
     <g id="text_5">
      <!-- 1970 -->
      <defs>
       <path d="M 4.734375 62.203125 
L 4.734375 70.65625 
L 51.078125 70.65625 
L 51.078125 63.8125 
Q 44.234375 56.546875 37.515625 44.484375 
Q 30.8125 32.421875 27.15625 19.671875 
Q 24.515625 10.6875 23.78125 0 
L 14.75 0 
Q 14.890625 8.453125 18.0625 20.40625 
Q 21.234375 32.375 27.171875 43.484375 
Q 33.109375 54.59375 39.796875 62.203125 
z
" id="ArialMT-37"/>
      </defs>
      <g style="fill:#262626;" transform="translate(161.362541 127.351146)scale(0.1 -0.1)">
       <use xlink:href="#ArialMT-31"/>
       <use x="55.615234" xlink:href="#ArialMT-39"/>
       <use x="111.230469" xlink:href="#ArialMT-37"/>
       <use x="166.845703" xlink:href="#ArialMT-30"/>
      </g>
     </g>
    </g>
    <g id="xtick_22">
     <g id="line2d_43">
      <path clip-path="url(#p6f6d49699a)" d="M 177.919481 116.693333 
L 177.919481 34.56 
" style="fill:none;stroke:#ffffff;stroke-linecap:round;stroke-width:0.8;"/>
     </g>
     <g id="line2d_44"/>
    </g>
    <g id="xtick_23">
     <g id="line2d_45">
      <path clip-path="url(#p6f6d49699a)" d="M 183.354545 116.693333 
L 183.354545 34.56 
" style="fill:none;stroke:#ffffff;stroke-linecap:round;stroke-width:0.8;"/>
     </g>
     <g id="line2d_46"/>
    </g>
    <g id="xtick_24">
     <g id="line2d_47">
      <path clip-path="url(#p6f6d49699a)" d="M 188.78961 116.693333 
L 188.78961 34.56 
" style="fill:none;stroke:#ffffff;stroke-linecap:round;stroke-width:0.8;"/>
     </g>
     <g id="line2d_48"/>
    </g>
    <g id="xtick_25">
     <g id="line2d_49">
      <path clip-path="url(#p6f6d49699a)" d="M 194.224675 116.693333 
L 194.224675 34.56 
" style="fill:none;stroke:#ffffff;stroke-linecap:round;stroke-width:0.8;"/>
     </g>
     <g id="line2d_50"/>
    </g>
    <g id="xtick_26">
     <g id="line2d_51">
      <path clip-path="url(#p6f6d49699a)" d="M 199.65974 116.693333 
L 199.65974 34.56 
" style="fill:none;stroke:#ffffff;stroke-linecap:round;stroke-width:0.8;"/>
     </g>
     <g id="line2d_52"/>
     <g id="text_6">
      <!-- 1975 -->
      <g style="fill:#262626;" transform="translate(188.537865 127.351146)scale(0.1 -0.1)">
       <use xlink:href="#ArialMT-31"/>
       <use x="55.615234" xlink:href="#ArialMT-39"/>
       <use x="111.230469" xlink:href="#ArialMT-37"/>
       <use x="166.845703" xlink:href="#ArialMT-35"/>
      </g>
     </g>
    </g>
    <g id="xtick_27">
     <g id="line2d_53">
      <path clip-path="url(#p6f6d49699a)" d="M 205.094805 116.693333 
L 205.094805 34.56 
" style="fill:none;stroke:#ffffff;stroke-linecap:round;stroke-width:0.8;"/>
     </g>
     <g id="line2d_54"/>
    </g>
    <g id="xtick_28">
     <g id="line2d_55">
      <path clip-path="url(#p6f6d49699a)" d="M 210.52987 116.693333 
L 210.52987 34.56 
" style="fill:none;stroke:#ffffff;stroke-linecap:round;stroke-width:0.8;"/>
     </g>
     <g id="line2d_56"/>
    </g>
    <g id="xtick_29">
     <g id="line2d_57">
      <path clip-path="url(#p6f6d49699a)" d="M 215.964935 116.693333 
L 215.964935 34.56 
" style="fill:none;stroke:#ffffff;stroke-linecap:round;stroke-width:0.8;"/>
     </g>
     <g id="line2d_58"/>
    </g>
    <g id="xtick_30">
     <g id="line2d_59">
      <path clip-path="url(#p6f6d49699a)" d="M 221.4 116.693333 
L 221.4 34.56 
" style="fill:none;stroke:#ffffff;stroke-linecap:round;stroke-width:0.8;"/>
     </g>
     <g id="line2d_60"/>
    </g>
    <g id="xtick_31">
     <g id="line2d_61">
      <path clip-path="url(#p6f6d49699a)" d="M 226.835065 116.693333 
L 226.835065 34.56 
" style="fill:none;stroke:#ffffff;stroke-linecap:round;stroke-width:0.8;"/>
     </g>
     <g id="line2d_62"/>
     <g id="text_7">
      <!-- 1980 -->
      <defs>
       <path d="M 17.671875 38.8125 
Q 12.203125 40.828125 9.5625 44.53125 
Q 6.9375 48.25 6.9375 53.421875 
Q 6.9375 61.234375 12.546875 66.546875 
Q 18.171875 71.875 27.484375 71.875 
Q 36.859375 71.875 42.578125 66.421875 
Q 48.296875 60.984375 48.296875 53.171875 
Q 48.296875 48.1875 45.671875 44.5 
Q 43.0625 40.828125 37.75 38.8125 
Q 44.34375 36.671875 47.78125 31.875 
Q 51.21875 27.09375 51.21875 20.453125 
Q 51.21875 11.28125 44.71875 5.03125 
Q 38.234375 -1.21875 27.640625 -1.21875 
Q 17.046875 -1.21875 10.546875 5.046875 
Q 4.046875 11.328125 4.046875 20.703125 
Q 4.046875 27.6875 7.59375 32.390625 
Q 11.140625 37.109375 17.671875 38.8125 
z
M 15.921875 53.71875 
Q 15.921875 48.640625 19.1875 45.40625 
Q 22.46875 42.1875 27.6875 42.1875 
Q 32.765625 42.1875 36.015625 45.375 
Q 39.265625 48.578125 39.265625 53.21875 
Q 39.265625 58.0625 35.90625 61.359375 
Q 32.5625 64.65625 27.59375 64.65625 
Q 22.5625 64.65625 19.234375 61.421875 
Q 15.921875 58.203125 15.921875 53.71875 
z
M 13.09375 20.65625 
Q 13.09375 16.890625 14.875 13.375 
Q 16.65625 9.859375 20.171875 7.921875 
Q 23.6875 6 27.734375 6 
Q 34.03125 6 38.125 10.046875 
Q 42.234375 14.109375 42.234375 20.359375 
Q 42.234375 26.703125 38.015625 30.859375 
Q 33.796875 35.015625 27.4375 35.015625 
Q 21.234375 35.015625 17.15625 30.90625 
Q 13.09375 26.8125 13.09375 20.65625 
z
" id="ArialMT-38"/>
      </defs>
      <g style="fill:#262626;" transform="translate(215.71319 127.351146)scale(0.1 -0.1)">
       <use xlink:href="#ArialMT-31"/>
       <use x="55.615234" xlink:href="#ArialMT-39"/>
       <use x="111.230469" xlink:href="#ArialMT-38"/>
       <use x="166.845703" xlink:href="#ArialMT-30"/>
      </g>
     </g>
    </g>
    <g id="xtick_32">
     <g id="line2d_63">
      <path clip-path="url(#p6f6d49699a)" d="M 232.27013 116.693333 
L 232.27013 34.56 
" style="fill:none;stroke:#ffffff;stroke-linecap:round;stroke-width:0.8;"/>
     </g>
     <g id="line2d_64"/>
    </g>
    <g id="xtick_33">
     <g id="line2d_65">
      <path clip-path="url(#p6f6d49699a)" d="M 237.705195 116.693333 
L 237.705195 34.56 
" style="fill:none;stroke:#ffffff;stroke-linecap:round;stroke-width:0.8;"/>
     </g>
     <g id="line2d_66"/>
    </g>
    <g id="xtick_34">
     <g id="line2d_67">
      <path clip-path="url(#p6f6d49699a)" d="M 243.14026 116.693333 
L 243.14026 34.56 
" style="fill:none;stroke:#ffffff;stroke-linecap:round;stroke-width:0.8;"/>
     </g>
     <g id="line2d_68"/>
    </g>
    <g id="xtick_35">
     <g id="line2d_69">
      <path clip-path="url(#p6f6d49699a)" d="M 248.575325 116.693333 
L 248.575325 34.56 
" style="fill:none;stroke:#ffffff;stroke-linecap:round;stroke-width:0.8;"/>
     </g>
     <g id="line2d_70"/>
    </g>
    <g id="xtick_36">
     <g id="line2d_71">
      <path clip-path="url(#p6f6d49699a)" d="M 254.01039 116.693333 
L 254.01039 34.56 
" style="fill:none;stroke:#ffffff;stroke-linecap:round;stroke-width:0.8;"/>
     </g>
     <g id="line2d_72"/>
     <g id="text_8">
      <!-- 1985 -->
      <g style="fill:#262626;" transform="translate(242.888515 127.351146)scale(0.1 -0.1)">
       <use xlink:href="#ArialMT-31"/>
       <use x="55.615234" xlink:href="#ArialMT-39"/>
       <use x="111.230469" xlink:href="#ArialMT-38"/>
       <use x="166.845703" xlink:href="#ArialMT-35"/>
      </g>
     </g>
    </g>
    <g id="xtick_37">
     <g id="line2d_73">
      <path clip-path="url(#p6f6d49699a)" d="M 259.445455 116.693333 
L 259.445455 34.56 
" style="fill:none;stroke:#ffffff;stroke-linecap:round;stroke-width:0.8;"/>
     </g>
     <g id="line2d_74"/>
    </g>
    <g id="xtick_38">
     <g id="line2d_75">
      <path clip-path="url(#p6f6d49699a)" d="M 264.880519 116.693333 
L 264.880519 34.56 
" style="fill:none;stroke:#ffffff;stroke-linecap:round;stroke-width:0.8;"/>
     </g>
     <g id="line2d_76"/>
    </g>
    <g id="xtick_39">
     <g id="line2d_77">
      <path clip-path="url(#p6f6d49699a)" d="M 270.315584 116.693333 
L 270.315584 34.56 
" style="fill:none;stroke:#ffffff;stroke-linecap:round;stroke-width:0.8;"/>
     </g>
     <g id="line2d_78"/>
    </g>
    <g id="xtick_40">
     <g id="line2d_79">
      <path clip-path="url(#p6f6d49699a)" d="M 275.750649 116.693333 
L 275.750649 34.56 
" style="fill:none;stroke:#ffffff;stroke-linecap:round;stroke-width:0.8;"/>
     </g>
     <g id="line2d_80"/>
    </g>
    <g id="xtick_41">
     <g id="line2d_81">
      <path clip-path="url(#p6f6d49699a)" d="M 281.185714 116.693333 
L 281.185714 34.56 
" style="fill:none;stroke:#ffffff;stroke-linecap:round;stroke-width:0.8;"/>
     </g>
     <g id="line2d_82"/>
     <g id="text_9">
      <!-- 1990 -->
      <g style="fill:#262626;" transform="translate(270.063839 127.351146)scale(0.1 -0.1)">
       <use xlink:href="#ArialMT-31"/>
       <use x="55.615234" xlink:href="#ArialMT-39"/>
       <use x="111.230469" xlink:href="#ArialMT-39"/>
       <use x="166.845703" xlink:href="#ArialMT-30"/>
      </g>
     </g>
    </g>
    <g id="xtick_42">
     <g id="line2d_83">
      <path clip-path="url(#p6f6d49699a)" d="M 286.620779 116.693333 
L 286.620779 34.56 
" style="fill:none;stroke:#ffffff;stroke-linecap:round;stroke-width:0.8;"/>
     </g>
     <g id="line2d_84"/>
    </g>
    <g id="xtick_43">
     <g id="line2d_85">
      <path clip-path="url(#p6f6d49699a)" d="M 292.055844 116.693333 
L 292.055844 34.56 
" style="fill:none;stroke:#ffffff;stroke-linecap:round;stroke-width:0.8;"/>
     </g>
     <g id="line2d_86"/>
    </g>
    <g id="xtick_44">
     <g id="line2d_87">
      <path clip-path="url(#p6f6d49699a)" d="M 297.490909 116.693333 
L 297.490909 34.56 
" style="fill:none;stroke:#ffffff;stroke-linecap:round;stroke-width:0.8;"/>
     </g>
     <g id="line2d_88"/>
    </g>
    <g id="xtick_45">
     <g id="line2d_89">
      <path clip-path="url(#p6f6d49699a)" d="M 302.925974 116.693333 
L 302.925974 34.56 
" style="fill:none;stroke:#ffffff;stroke-linecap:round;stroke-width:0.8;"/>
     </g>
     <g id="line2d_90"/>
    </g>
    <g id="xtick_46">
     <g id="line2d_91">
      <path clip-path="url(#p6f6d49699a)" d="M 308.361039 116.693333 
L 308.361039 34.56 
" style="fill:none;stroke:#ffffff;stroke-linecap:round;stroke-width:0.8;"/>
     </g>
     <g id="line2d_92"/>
     <g id="text_10">
      <!-- 1995 -->
      <g style="fill:#262626;" transform="translate(297.239164 127.351146)scale(0.1 -0.1)">
       <use xlink:href="#ArialMT-31"/>
       <use x="55.615234" xlink:href="#ArialMT-39"/>
       <use x="111.230469" xlink:href="#ArialMT-39"/>
       <use x="166.845703" xlink:href="#ArialMT-35"/>
      </g>
     </g>
    </g>
    <g id="xtick_47">
     <g id="line2d_93">
      <path clip-path="url(#p6f6d49699a)" d="M 313.796104 116.693333 
L 313.796104 34.56 
" style="fill:none;stroke:#ffffff;stroke-linecap:round;stroke-width:0.8;"/>
     </g>
     <g id="line2d_94"/>
    </g>
    <g id="xtick_48">
     <g id="line2d_95">
      <path clip-path="url(#p6f6d49699a)" d="M 319.231169 116.693333 
L 319.231169 34.56 
" style="fill:none;stroke:#ffffff;stroke-linecap:round;stroke-width:0.8;"/>
     </g>
     <g id="line2d_96"/>
    </g>
    <g id="xtick_49">
     <g id="line2d_97">
      <path clip-path="url(#p6f6d49699a)" d="M 324.666234 116.693333 
L 324.666234 34.56 
" style="fill:none;stroke:#ffffff;stroke-linecap:round;stroke-width:0.8;"/>
     </g>
     <g id="line2d_98"/>
    </g>
    <g id="xtick_50">
     <g id="line2d_99">
      <path clip-path="url(#p6f6d49699a)" d="M 330.101299 116.693333 
L 330.101299 34.56 
" style="fill:none;stroke:#ffffff;stroke-linecap:round;stroke-width:0.8;"/>
     </g>
     <g id="line2d_100"/>
    </g>
    <g id="xtick_51">
     <g id="line2d_101">
      <path clip-path="url(#p6f6d49699a)" d="M 335.536364 116.693333 
L 335.536364 34.56 
" style="fill:none;stroke:#ffffff;stroke-linecap:round;stroke-width:0.8;"/>
     </g>
     <g id="line2d_102"/>
     <g id="text_11">
      <!-- 2000 -->
      <defs>
       <path d="M 50.34375 8.453125 
L 50.34375 0 
L 3.03125 0 
Q 2.9375 3.171875 4.046875 6.109375 
Q 5.859375 10.9375 9.828125 15.625 
Q 13.8125 20.3125 21.34375 26.46875 
Q 33.015625 36.03125 37.109375 41.625 
Q 41.21875 47.21875 41.21875 52.203125 
Q 41.21875 57.421875 37.46875 61 
Q 33.734375 64.59375 27.734375 64.59375 
Q 21.390625 64.59375 17.578125 60.78125 
Q 13.765625 56.984375 13.71875 50.25 
L 4.6875 51.171875 
Q 5.609375 61.28125 11.65625 66.578125 
Q 17.71875 71.875 27.9375 71.875 
Q 38.234375 71.875 44.234375 66.15625 
Q 50.25 60.453125 50.25 52 
Q 50.25 47.703125 48.484375 43.546875 
Q 46.734375 39.40625 42.65625 34.8125 
Q 38.578125 30.21875 29.109375 22.21875 
Q 21.1875 15.578125 18.9375 13.203125 
Q 16.703125 10.84375 15.234375 8.453125 
z
" id="ArialMT-32"/>
      </defs>
      <g style="fill:#262626;" transform="translate(324.414489 127.351146)scale(0.1 -0.1)">
       <use xlink:href="#ArialMT-32"/>
       <use x="55.615234" xlink:href="#ArialMT-30"/>
       <use x="111.230469" xlink:href="#ArialMT-30"/>
       <use x="166.845703" xlink:href="#ArialMT-30"/>
      </g>
     </g>
    </g>
    <g id="xtick_52">
     <g id="line2d_103">
      <path clip-path="url(#p6f6d49699a)" d="M 340.971429 116.693333 
L 340.971429 34.56 
" style="fill:none;stroke:#ffffff;stroke-linecap:round;stroke-width:0.8;"/>
     </g>
     <g id="line2d_104"/>
    </g>
    <g id="xtick_53">
     <g id="line2d_105">
      <path clip-path="url(#p6f6d49699a)" d="M 346.406494 116.693333 
L 346.406494 34.56 
" style="fill:none;stroke:#ffffff;stroke-linecap:round;stroke-width:0.8;"/>
     </g>
     <g id="line2d_106"/>
    </g>
    <g id="xtick_54">
     <g id="line2d_107">
      <path clip-path="url(#p6f6d49699a)" d="M 351.841558 116.693333 
L 351.841558 34.56 
" style="fill:none;stroke:#ffffff;stroke-linecap:round;stroke-width:0.8;"/>
     </g>
     <g id="line2d_108"/>
    </g>
    <g id="xtick_55">
     <g id="line2d_109">
      <path clip-path="url(#p6f6d49699a)" d="M 357.276623 116.693333 
L 357.276623 34.56 
" style="fill:none;stroke:#ffffff;stroke-linecap:round;stroke-width:0.8;"/>
     </g>
     <g id="line2d_110"/>
    </g>
    <g id="xtick_56">
     <g id="line2d_111">
      <path clip-path="url(#p6f6d49699a)" d="M 362.711688 116.693333 
L 362.711688 34.56 
" style="fill:none;stroke:#ffffff;stroke-linecap:round;stroke-width:0.8;"/>
     </g>
     <g id="line2d_112"/>
     <g id="text_12">
      <!-- 2005 -->
      <g style="fill:#262626;" transform="translate(351.589813 127.351146)scale(0.1 -0.1)">
       <use xlink:href="#ArialMT-32"/>
       <use x="55.615234" xlink:href="#ArialMT-30"/>
       <use x="111.230469" xlink:href="#ArialMT-30"/>
       <use x="166.845703" xlink:href="#ArialMT-35"/>
      </g>
     </g>
    </g>
    <g id="xtick_57">
     <g id="line2d_113">
      <path clip-path="url(#p6f6d49699a)" d="M 368.146753 116.693333 
L 368.146753 34.56 
" style="fill:none;stroke:#ffffff;stroke-linecap:round;stroke-width:0.8;"/>
     </g>
     <g id="line2d_114"/>
    </g>
    <g id="xtick_58">
     <g id="line2d_115">
      <path clip-path="url(#p6f6d49699a)" d="M 373.581818 116.693333 
L 373.581818 34.56 
" style="fill:none;stroke:#ffffff;stroke-linecap:round;stroke-width:0.8;"/>
     </g>
     <g id="line2d_116"/>
    </g>
   </g>
   <g id="matplotlib.axis_2">
    <g id="ytick_1">
     <g id="line2d_117">
      <path clip-path="url(#p6f6d49699a)" d="M 54 112.96 
L 388.8 112.96 
" style="fill:none;stroke:#ffffff;stroke-linecap:round;stroke-width:0.8;"/>
     </g>
     <g id="line2d_118"/>
     <g id="text_13">
      <!-- 0 -->
      <g style="fill:#262626;" transform="translate(44.939062 116.538906)scale(0.1 -0.1)">
       <use xlink:href="#ArialMT-30"/>
      </g>
     </g>
    </g>
    <g id="ytick_2">
     <g id="line2d_119">
      <path clip-path="url(#p6f6d49699a)" d="M 54 88.317536 
L 388.8 88.317536 
" style="fill:none;stroke:#ffffff;stroke-linecap:round;stroke-width:0.8;"/>
     </g>
     <g id="line2d_120"/>
     <g id="text_14">
      <!-- 50 -->
      <g style="fill:#262626;" transform="translate(39.378125 91.896442)scale(0.1 -0.1)">
       <use xlink:href="#ArialMT-35"/>
       <use x="55.615234" xlink:href="#ArialMT-30"/>
      </g>
     </g>
    </g>
    <g id="ytick_3">
     <g id="line2d_121">
      <path clip-path="url(#p6f6d49699a)" d="M 54 63.675072 
L 388.8 63.675072 
" style="fill:none;stroke:#ffffff;stroke-linecap:round;stroke-width:0.8;"/>
     </g>
     <g id="line2d_122"/>
     <g id="text_15">
      <!-- 100 -->
      <g style="fill:#262626;" transform="translate(33.817188 67.253978)scale(0.1 -0.1)">
       <use xlink:href="#ArialMT-31"/>
       <use x="55.615234" xlink:href="#ArialMT-30"/>
       <use x="111.230469" xlink:href="#ArialMT-30"/>
      </g>
     </g>
    </g>
    <g id="ytick_4">
     <g id="line2d_123">
      <path clip-path="url(#p6f6d49699a)" d="M 54 39.032607 
L 388.8 39.032607 
" style="fill:none;stroke:#ffffff;stroke-linecap:round;stroke-width:0.8;"/>
     </g>
     <g id="line2d_124"/>
     <g id="text_16">
      <!-- 150 -->
      <g style="fill:#262626;" transform="translate(33.817188 42.611514)scale(0.1 -0.1)">
       <use xlink:href="#ArialMT-31"/>
       <use x="55.615234" xlink:href="#ArialMT-35"/>
       <use x="111.230469" xlink:href="#ArialMT-30"/>
      </g>
     </g>
    </g>
   </g>
   <g id="line2d_125">
    <path clip-path="url(#p6f6d49699a)" d="M 0 0 
" style="fill:none;stroke:#000000;stroke-dasharray:5.55,2.4;stroke-dashoffset:0;stroke-width:1.5;"/>
   </g>
   <g id="line2d_126">
    <path clip-path="url(#p6f6d49699a)" d="M 69.218182 112.96 
L 74.653247 112.96 
L 80.088312 112.96 
L 85.523377 112.96 
L 90.958442 112.96 
L 96.393506 112.96 
L 101.828571 112.96 
L 107.263636 112.96 
L 112.698701 112.96 
L 118.133766 112.96 
L 123.568831 112.96 
L 129.003896 112.96 
L 134.438961 112.96 
L 139.874026 112.96 
L 145.309091 112.96 
L 150.744156 112.96 
L 156.179221 112.467151 
L 161.614286 112.220726 
L 167.049351 112.467151 
L 172.484416 112.467151 
L 177.919481 112.713575 
L 183.354545 112.467151 
L 188.78961 112.220726 
L 194.224675 112.220726 
L 199.65974 111.974301 
L 205.094805 112.220726 
L 210.52987 112.220726 
L 215.964935 111.727877 
L 221.4 112.220726 
L 226.835065 111.481452 
L 232.27013 110.495754 
L 237.705195 111.974301 
L 243.14026 112.713575 
L 248.575325 111.235028 
L 254.01039 109.75648 
L 259.445455 110.988603 
L 264.880519 112.467151 
L 270.315584 112.220726 
L 275.750649 111.974301 
L 281.185714 111.727877 
L 286.620779 111.481452 
L 292.055844 111.481452 
L 297.490909 111.974301 
L 302.925974 112.220726 
L 308.361039 111.727877 
L 313.796104 112.220726 
L 319.231169 112.467151 
L 324.666234 111.974301 
L 330.101299 112.220726 
L 335.536364 112.713575 
L 340.971429 112.713575 
L 346.406494 112.220726 
L 351.841558 111.974301 
L 357.276623 112.467151 
L 362.711688 112.220726 
L 368.146753 111.727877 
L 373.581818 111.235028 
" style="fill:none;stroke:#000000;stroke-linecap:round;stroke-width:1.5;"/>
   </g>
   <g id="line2d_127">
    <path clip-path="url(#p6f6d49699a)" d="M 69.218182 112.96 
L 74.653247 112.96 
L 80.088312 112.96 
L 85.523377 112.96 
L 90.958442 112.96 
L 96.393506 112.96 
L 101.828571 112.96 
L 107.263636 112.96 
L 112.698701 112.96 
L 118.133766 112.96 
L 123.568831 112.220726 
L 129.003896 110.742178 
L 134.438961 109.017206 
L 139.874026 106.799384 
L 145.309091 105.074411 
L 150.744156 102.610165 
L 156.179221 101.624466 
L 161.614286 102.610165 
L 167.049351 102.610165 
L 172.484416 104.088713 
L 177.919481 106.552959 
L 183.354545 106.799384 
L 188.78961 103.103014 
L 194.224675 101.378042 
L 199.65974 102.610165 
L 205.094805 98.667371 
L 210.52987 95.217426 
L 215.964935 93.738878 
L 221.4 94.478152 
L 226.835065 94.231727 
L 232.27013 80.678372 
L 237.705195 64.414345 
L 243.14026 66.878592 
L 248.575325 63.182222 
L 254.01039 50.86099 
L 259.445455 44.700374 
L 264.880519 38.293333 
L 270.315584 42.975402 
L 275.750649 43.221826 
L 281.185714 44.700374 
L 286.620779 49.875292 
L 292.055844 42.728977 
L 297.490909 43.9611 
L 302.925974 60.471551 
L 308.361039 63.921496 
L 313.796104 62.689373 
L 319.231169 68.110715 
L 324.666234 71.807085 
L 330.101299 68.110715 
L 335.536364 63.428647 
L 340.971429 61.703674 
L 346.406494 61.950099 
L 351.841558 63.921496 
L 357.276623 61.703674 
L 362.711688 50.368141 
L 368.146753 42.482552 
L 373.581818 38.786183 
" style="fill:none;stroke:#000000;stroke-dasharray:1.5,2.475;stroke-dashoffset:0;stroke-width:1.5;"/>
   </g>
   <g id="patch_3">
    <path d="M 54 116.693333 
L 54 34.56 
" style="fill:none;"/>
   </g>
   <g id="patch_4">
    <path d="M 388.8 116.693333 
L 388.8 34.56 
" style="fill:none;"/>
   </g>
   <g id="patch_5">
    <path d="M 54 116.693333 
L 388.8 116.693333 
" style="fill:none;"/>
   </g>
   <g id="patch_6">
    <path d="M 54 34.56 
L 388.8 34.56 
" style="fill:none;"/>
   </g>
   <g id="text_17">
    <!-- Paper citations -->
    <defs>
     <path d="M 7.71875 0 
L 7.71875 71.578125 
L 34.71875 71.578125 
Q 41.84375 71.578125 45.609375 70.90625 
Q 50.875 70.015625 54.4375 67.546875 
Q 58.015625 65.09375 60.1875 60.640625 
Q 62.359375 56.203125 62.359375 50.875 
Q 62.359375 41.75 56.546875 35.421875 
Q 50.734375 29.109375 35.546875 29.109375 
L 17.1875 29.109375 
L 17.1875 0 
z
M 17.1875 37.546875 
L 35.6875 37.546875 
Q 44.875 37.546875 48.734375 40.96875 
Q 52.59375 44.390625 52.59375 50.59375 
Q 52.59375 55.078125 50.3125 58.265625 
Q 48.046875 61.46875 44.34375 62.5 
Q 41.9375 63.140625 35.5 63.140625 
L 17.1875 63.140625 
z
" id="ArialMT-50"/>
     <path d="M 40.4375 6.390625 
Q 35.546875 2.25 31.03125 0.53125 
Q 26.515625 -1.171875 21.34375 -1.171875 
Q 12.796875 -1.171875 8.203125 3 
Q 3.609375 7.171875 3.609375 13.671875 
Q 3.609375 17.484375 5.34375 20.625 
Q 7.078125 23.78125 9.890625 25.6875 
Q 12.703125 27.59375 16.21875 28.5625 
Q 18.796875 29.25 24.03125 29.890625 
Q 34.671875 31.15625 39.703125 32.90625 
Q 39.75 34.71875 39.75 35.203125 
Q 39.75 40.578125 37.25 42.78125 
Q 33.890625 45.75 27.25 45.75 
Q 21.046875 45.75 18.09375 43.578125 
Q 15.140625 41.40625 13.71875 35.890625 
L 5.125 37.0625 
Q 6.296875 42.578125 8.984375 45.96875 
Q 11.671875 49.359375 16.75 51.1875 
Q 21.828125 53.03125 28.515625 53.03125 
Q 35.15625 53.03125 39.296875 51.46875 
Q 43.453125 49.90625 45.40625 47.53125 
Q 47.359375 45.171875 48.140625 41.546875 
Q 48.578125 39.3125 48.578125 33.453125 
L 48.578125 21.734375 
Q 48.578125 9.46875 49.140625 6.21875 
Q 49.703125 2.984375 51.375 0 
L 42.1875 0 
Q 40.828125 2.734375 40.4375 6.390625 
z
M 39.703125 26.03125 
Q 34.90625 24.078125 25.34375 22.703125 
Q 19.921875 21.921875 17.671875 20.9375 
Q 15.4375 19.96875 14.203125 18.09375 
Q 12.984375 16.21875 12.984375 13.921875 
Q 12.984375 10.40625 15.640625 8.0625 
Q 18.3125 5.71875 23.4375 5.71875 
Q 28.515625 5.71875 32.46875 7.9375 
Q 36.421875 10.15625 38.28125 14.015625 
Q 39.703125 17 39.703125 22.796875 
z
" id="ArialMT-61"/>
     <path d="M 6.59375 -19.875 
L 6.59375 51.859375 
L 14.59375 51.859375 
L 14.59375 45.125 
Q 17.4375 49.078125 21 51.046875 
Q 24.5625 53.03125 29.640625 53.03125 
Q 36.28125 53.03125 41.359375 49.609375 
Q 46.4375 46.1875 49.015625 39.953125 
Q 51.609375 33.734375 51.609375 26.3125 
Q 51.609375 18.359375 48.75 11.984375 
Q 45.90625 5.609375 40.453125 2.21875 
Q 35.015625 -1.171875 29 -1.171875 
Q 24.609375 -1.171875 21.109375 0.6875 
Q 17.625 2.546875 15.375 5.375 
L 15.375 -19.875 
z
M 14.546875 25.640625 
Q 14.546875 15.625 18.59375 10.84375 
Q 22.65625 6.0625 28.421875 6.0625 
Q 34.28125 6.0625 38.453125 11.015625 
Q 42.625 15.96875 42.625 26.375 
Q 42.625 36.28125 38.546875 41.203125 
Q 34.46875 46.140625 28.8125 46.140625 
Q 23.1875 46.140625 18.859375 40.890625 
Q 14.546875 35.640625 14.546875 25.640625 
z
" id="ArialMT-70"/>
     <path d="M 42.09375 16.703125 
L 51.171875 15.578125 
Q 49.03125 7.625 43.21875 3.21875 
Q 37.40625 -1.171875 28.375 -1.171875 
Q 17 -1.171875 10.328125 5.828125 
Q 3.65625 12.84375 3.65625 25.484375 
Q 3.65625 38.578125 10.390625 45.796875 
Q 17.140625 53.03125 27.875 53.03125 
Q 38.28125 53.03125 44.875 45.953125 
Q 51.46875 38.875 51.46875 26.03125 
Q 51.46875 25.25 51.421875 23.6875 
L 12.75 23.6875 
Q 13.234375 15.140625 17.578125 10.59375 
Q 21.921875 6.0625 28.421875 6.0625 
Q 33.25 6.0625 36.671875 8.59375 
Q 40.09375 11.140625 42.09375 16.703125 
z
M 13.234375 30.90625 
L 42.1875 30.90625 
Q 41.609375 37.453125 38.875 40.71875 
Q 34.671875 45.796875 27.984375 45.796875 
Q 21.921875 45.796875 17.796875 41.75 
Q 13.671875 37.703125 13.234375 30.90625 
z
" id="ArialMT-65"/>
     <path d="M 6.5 0 
L 6.5 51.859375 
L 14.40625 51.859375 
L 14.40625 44 
Q 17.4375 49.515625 20 51.265625 
Q 22.5625 53.03125 25.640625 53.03125 
Q 30.078125 53.03125 34.671875 50.203125 
L 31.640625 42.046875 
Q 28.421875 43.953125 25.203125 43.953125 
Q 22.3125 43.953125 20.015625 42.21875 
Q 17.71875 40.484375 16.75 37.40625 
Q 15.28125 32.71875 15.28125 27.15625 
L 15.28125 0 
z
" id="ArialMT-72"/>
     <path id="ArialMT-20"/>
     <path d="M 40.4375 19 
L 49.078125 17.875 
Q 47.65625 8.9375 41.8125 3.875 
Q 35.984375 -1.171875 27.484375 -1.171875 
Q 16.84375 -1.171875 10.375 5.78125 
Q 3.90625 12.75 3.90625 25.734375 
Q 3.90625 34.125 6.6875 40.421875 
Q 9.46875 46.734375 15.15625 49.875 
Q 20.84375 53.03125 27.546875 53.03125 
Q 35.984375 53.03125 41.359375 48.75 
Q 46.734375 44.484375 48.25 36.625 
L 39.703125 35.296875 
Q 38.484375 40.53125 35.375 43.15625 
Q 32.28125 45.796875 27.875 45.796875 
Q 21.234375 45.796875 17.078125 41.03125 
Q 12.9375 36.28125 12.9375 25.984375 
Q 12.9375 15.53125 16.9375 10.796875 
Q 20.953125 6.0625 27.390625 6.0625 
Q 32.5625 6.0625 36.03125 9.234375 
Q 39.5 12.40625 40.4375 19 
z
" id="ArialMT-63"/>
     <path d="M 6.640625 61.46875 
L 6.640625 71.578125 
L 15.4375 71.578125 
L 15.4375 61.46875 
z
M 6.640625 0 
L 6.640625 51.859375 
L 15.4375 51.859375 
L 15.4375 0 
z
" id="ArialMT-69"/>
     <path d="M 25.78125 7.859375 
L 27.046875 0.09375 
Q 23.34375 -0.6875 20.40625 -0.6875 
Q 15.625 -0.6875 12.984375 0.828125 
Q 10.359375 2.34375 9.28125 4.8125 
Q 8.203125 7.28125 8.203125 15.1875 
L 8.203125 45.015625 
L 1.765625 45.015625 
L 1.765625 51.859375 
L 8.203125 51.859375 
L 8.203125 64.703125 
L 16.9375 69.96875 
L 16.9375 51.859375 
L 25.78125 51.859375 
L 25.78125 45.015625 
L 16.9375 45.015625 
L 16.9375 14.703125 
Q 16.9375 10.9375 17.40625 9.859375 
Q 17.875 8.796875 18.921875 8.15625 
Q 19.96875 7.515625 21.921875 7.515625 
Q 23.390625 7.515625 25.78125 7.859375 
z
" id="ArialMT-74"/>
     <path d="M 3.328125 25.921875 
Q 3.328125 40.328125 11.328125 47.265625 
Q 18.015625 53.03125 27.640625 53.03125 
Q 38.328125 53.03125 45.109375 46.015625 
Q 51.90625 39.015625 51.90625 26.65625 
Q 51.90625 16.65625 48.90625 10.90625 
Q 45.90625 5.171875 40.15625 2 
Q 34.421875 -1.171875 27.640625 -1.171875 
Q 16.75 -1.171875 10.03125 5.8125 
Q 3.328125 12.796875 3.328125 25.921875 
z
M 12.359375 25.921875 
Q 12.359375 15.96875 16.703125 11.015625 
Q 21.046875 6.0625 27.640625 6.0625 
Q 34.1875 6.0625 38.53125 11.03125 
Q 42.875 16.015625 42.875 26.21875 
Q 42.875 35.84375 38.5 40.796875 
Q 34.125 45.75 27.640625 45.75 
Q 21.046875 45.75 16.703125 40.8125 
Q 12.359375 35.890625 12.359375 25.921875 
z
" id="ArialMT-6f"/>
     <path d="M 6.59375 0 
L 6.59375 51.859375 
L 14.5 51.859375 
L 14.5 44.484375 
Q 20.21875 53.03125 31 53.03125 
Q 35.6875 53.03125 39.625 51.34375 
Q 43.5625 49.65625 45.515625 46.921875 
Q 47.46875 44.1875 48.25 40.4375 
Q 48.734375 37.984375 48.734375 31.890625 
L 48.734375 0 
L 39.9375 0 
L 39.9375 31.546875 
Q 39.9375 36.921875 38.90625 39.578125 
Q 37.890625 42.234375 35.28125 43.8125 
Q 32.671875 45.40625 29.15625 45.40625 
Q 23.53125 45.40625 19.453125 41.84375 
Q 15.375 38.28125 15.375 28.328125 
L 15.375 0 
z
" id="ArialMT-6e"/>
     <path d="M 3.078125 15.484375 
L 11.765625 16.84375 
Q 12.5 11.625 15.84375 8.84375 
Q 19.1875 6.0625 25.203125 6.0625 
Q 31.25 6.0625 34.171875 8.515625 
Q 37.109375 10.984375 37.109375 14.3125 
Q 37.109375 17.28125 34.515625 19 
Q 32.71875 20.171875 25.53125 21.96875 
Q 15.875 24.421875 12.140625 26.203125 
Q 8.40625 27.984375 6.46875 31.125 
Q 4.546875 34.28125 4.546875 38.09375 
Q 4.546875 41.546875 6.125 44.5 
Q 7.71875 47.46875 10.453125 49.421875 
Q 12.5 50.921875 16.03125 51.96875 
Q 19.578125 53.03125 23.640625 53.03125 
Q 29.734375 53.03125 34.34375 51.265625 
Q 38.96875 49.515625 41.15625 46.5 
Q 43.359375 43.5 44.1875 38.484375 
L 35.59375 37.3125 
Q 35.015625 41.3125 32.203125 43.546875 
Q 29.390625 45.796875 24.265625 45.796875 
Q 18.21875 45.796875 15.625 43.796875 
Q 13.03125 41.796875 13.03125 39.109375 
Q 13.03125 37.40625 14.109375 36.03125 
Q 15.1875 34.625 17.484375 33.6875 
Q 18.796875 33.203125 25.25 31.453125 
Q 34.578125 28.953125 38.25 27.359375 
Q 41.9375 25.78125 44.03125 22.75 
Q 46.140625 19.734375 46.140625 15.234375 
Q 46.140625 10.84375 43.578125 6.953125 
Q 41.015625 3.078125 36.171875 0.953125 
Q 31.34375 -1.171875 25.25 -1.171875 
Q 15.140625 -1.171875 9.84375 3.03125 
Q 4.546875 7.234375 3.078125 15.484375 
z
" id="ArialMT-73"/>
    </defs>
    <g style="fill:#262626;" transform="translate(181.71375 28.56)scale(0.12 -0.12)">
     <use xlink:href="#ArialMT-50"/>
     <use x="66.699219" xlink:href="#ArialMT-61"/>
     <use x="122.314453" xlink:href="#ArialMT-70"/>
     <use x="177.929688" xlink:href="#ArialMT-65"/>
     <use x="233.544922" xlink:href="#ArialMT-72"/>
     <use x="266.845703" xlink:href="#ArialMT-20"/>
     <use x="294.628906" xlink:href="#ArialMT-63"/>
     <use x="344.628906" xlink:href="#ArialMT-69"/>
     <use x="366.845703" xlink:href="#ArialMT-74"/>
     <use x="394.628906" xlink:href="#ArialMT-61"/>
     <use x="450.244141" xlink:href="#ArialMT-74"/>
     <use x="478.027344" xlink:href="#ArialMT-69"/>
     <use x="500.244141" xlink:href="#ArialMT-6f"/>
     <use x="555.859375" xlink:href="#ArialMT-6e"/>
     <use x="611.474609" xlink:href="#ArialMT-73"/>
    </g>
   </g>
   <g id="legend_1">
    <g id="line2d_128">
     <path d="M 63 47.217813 
L 83 47.217813 
" style="fill:none;stroke:#000000;stroke-dasharray:5.55,2.4;stroke-dashoffset:0;stroke-width:1.5;"/>
    </g>
    <g id="line2d_129"/>
    <g id="text_18">
     <!-- Naur -->
     <defs>
      <path d="M 7.625 0 
L 7.625 71.578125 
L 17.328125 71.578125 
L 54.9375 15.375 
L 54.9375 71.578125 
L 64.015625 71.578125 
L 64.015625 0 
L 54.296875 0 
L 16.703125 56.25 
L 16.703125 0 
z
" id="ArialMT-4e"/>
      <path d="M 40.578125 0 
L 40.578125 7.625 
Q 34.515625 -1.171875 24.125 -1.171875 
Q 19.53125 -1.171875 15.546875 0.578125 
Q 11.578125 2.34375 9.640625 5 
Q 7.71875 7.671875 6.9375 11.53125 
Q 6.390625 14.109375 6.390625 19.734375 
L 6.390625 51.859375 
L 15.1875 51.859375 
L 15.1875 23.09375 
Q 15.1875 16.21875 15.71875 13.8125 
Q 16.546875 10.359375 19.234375 8.375 
Q 21.921875 6.390625 25.875 6.390625 
Q 29.828125 6.390625 33.296875 8.421875 
Q 36.765625 10.453125 38.203125 13.9375 
Q 39.65625 17.4375 39.65625 24.078125 
L 39.65625 51.859375 
L 48.4375 51.859375 
L 48.4375 0 
z
" id="ArialMT-75"/>
     </defs>
     <g style="fill:#262626;" transform="translate(91 50.717813)scale(0.1 -0.1)">
      <use xlink:href="#ArialMT-4e"/>
      <use x="72.216797" xlink:href="#ArialMT-61"/>
      <use x="127.832031" xlink:href="#ArialMT-75"/>
      <use x="183.447266" xlink:href="#ArialMT-72"/>
     </g>
    </g>
    <g id="line2d_130">
     <path d="M 63 61.363125 
L 83 61.363125 
" style="fill:none;stroke:#000000;stroke-linecap:round;stroke-width:1.5;"/>
    </g>
    <g id="line2d_131"/>
    <g id="text_19">
     <!-- Backus -->
     <defs>
      <path d="M 7.328125 0 
L 7.328125 71.578125 
L 34.1875 71.578125 
Q 42.390625 71.578125 47.34375 69.40625 
Q 52.296875 67.234375 55.09375 62.71875 
Q 57.90625 58.203125 57.90625 53.265625 
Q 57.90625 48.6875 55.421875 44.625 
Q 52.9375 40.578125 47.90625 38.09375 
Q 54.390625 36.1875 57.875 31.59375 
Q 61.375 27 61.375 20.75 
Q 61.375 15.71875 59.25 11.390625 
Q 57.125 7.078125 54 4.734375 
Q 50.875 2.390625 46.15625 1.1875 
Q 41.453125 0 34.625 0 
z
M 16.796875 41.5 
L 32.28125 41.5 
Q 38.578125 41.5 41.3125 42.328125 
Q 44.921875 43.40625 46.75 45.890625 
Q 48.578125 48.390625 48.578125 52.15625 
Q 48.578125 55.71875 46.875 58.421875 
Q 45.171875 61.140625 41.984375 62.140625 
Q 38.8125 63.140625 31.109375 63.140625 
L 16.796875 63.140625 
z
M 16.796875 8.453125 
L 34.625 8.453125 
Q 39.203125 8.453125 41.0625 8.796875 
Q 44.34375 9.375 46.53125 10.734375 
Q 48.734375 12.109375 50.140625 14.71875 
Q 51.5625 17.328125 51.5625 20.75 
Q 51.5625 24.75 49.515625 27.703125 
Q 47.46875 30.671875 43.828125 31.859375 
Q 40.1875 33.0625 33.34375 33.0625 
L 16.796875 33.0625 
z
" id="ArialMT-42"/>
      <path d="M 6.640625 0 
L 6.640625 71.578125 
L 15.4375 71.578125 
L 15.4375 30.765625 
L 36.234375 51.859375 
L 47.609375 51.859375 
L 27.78125 32.625 
L 49.609375 0 
L 38.765625 0 
L 21.625 26.515625 
L 15.4375 20.5625 
L 15.4375 0 
z
" id="ArialMT-6b"/>
     </defs>
     <g style="fill:#262626;" transform="translate(91 64.863125)scale(0.1 -0.1)">
      <use xlink:href="#ArialMT-42"/>
      <use x="66.699219" xlink:href="#ArialMT-61"/>
      <use x="122.314453" xlink:href="#ArialMT-63"/>
      <use x="172.314453" xlink:href="#ArialMT-6b"/>
      <use x="222.314453" xlink:href="#ArialMT-75"/>
      <use x="277.929688" xlink:href="#ArialMT-73"/>
     </g>
    </g>
    <g id="line2d_132">
     <path d="M 63 75.630313 
L 83 75.630313 
" style="fill:none;stroke:#000000;stroke-dasharray:1.5,2.475;stroke-dashoffset:0;stroke-width:1.5;"/>
    </g>
    <g id="line2d_133"/>
    <g id="text_20">
     <!-- McCarthy -->
     <defs>
      <path d="M 7.421875 0 
L 7.421875 71.578125 
L 21.6875 71.578125 
L 38.625 20.90625 
Q 40.96875 13.8125 42.046875 10.296875 
Q 43.265625 14.203125 45.84375 21.78125 
L 62.984375 71.578125 
L 75.734375 71.578125 
L 75.734375 0 
L 66.609375 0 
L 66.609375 59.90625 
L 45.796875 0 
L 37.25 0 
L 16.546875 60.9375 
L 16.546875 0 
z
" id="ArialMT-4d"/>
      <path d="M 58.796875 25.09375 
L 68.265625 22.703125 
Q 65.28125 11.03125 57.546875 4.90625 
Q 49.8125 -1.21875 38.625 -1.21875 
Q 27.046875 -1.21875 19.796875 3.484375 
Q 12.546875 8.203125 8.765625 17.140625 
Q 4.984375 26.078125 4.984375 36.328125 
Q 4.984375 47.515625 9.25 55.828125 
Q 13.53125 64.15625 21.40625 68.46875 
Q 29.296875 72.796875 38.765625 72.796875 
Q 49.515625 72.796875 56.828125 67.328125 
Q 64.15625 61.859375 67.046875 51.953125 
L 57.71875 49.75 
Q 55.21875 57.5625 50.484375 61.125 
Q 45.75 64.703125 38.578125 64.703125 
Q 30.328125 64.703125 24.78125 60.734375 
Q 19.234375 56.78125 16.984375 50.109375 
Q 14.75 43.453125 14.75 36.375 
Q 14.75 27.25 17.40625 20.4375 
Q 20.0625 13.625 25.671875 10.25 
Q 31.296875 6.890625 37.84375 6.890625 
Q 45.796875 6.890625 51.3125 11.46875 
Q 56.84375 16.0625 58.796875 25.09375 
z
" id="ArialMT-43"/>
      <path d="M 6.59375 0 
L 6.59375 71.578125 
L 15.375 71.578125 
L 15.375 45.90625 
Q 21.53125 53.03125 30.90625 53.03125 
Q 36.671875 53.03125 40.921875 50.75 
Q 45.171875 48.484375 47 44.484375 
Q 48.828125 40.484375 48.828125 32.859375 
L 48.828125 0 
L 40.046875 0 
L 40.046875 32.859375 
Q 40.046875 39.453125 37.1875 42.453125 
Q 34.328125 45.453125 29.109375 45.453125 
Q 25.203125 45.453125 21.75 43.421875 
Q 18.3125 41.40625 16.84375 37.9375 
Q 15.375 34.46875 15.375 28.375 
L 15.375 0 
z
" id="ArialMT-68"/>
      <path d="M 6.203125 -19.96875 
L 5.21875 -11.71875 
Q 8.109375 -12.5 10.25 -12.5 
Q 13.1875 -12.5 14.9375 -11.515625 
Q 16.703125 -10.546875 17.828125 -8.796875 
Q 18.65625 -7.46875 20.515625 -2.25 
Q 20.75 -1.515625 21.296875 -0.09375 
L 1.609375 51.859375 
L 11.078125 51.859375 
L 21.875 21.828125 
Q 23.96875 16.109375 25.640625 9.8125 
Q 27.15625 15.875 29.25 21.625 
L 40.328125 51.859375 
L 49.125 51.859375 
L 29.390625 -0.875 
Q 26.21875 -9.421875 24.46875 -12.640625 
Q 22.125 -17 19.09375 -19.015625 
Q 16.0625 -21.046875 11.859375 -21.046875 
Q 9.328125 -21.046875 6.203125 -19.96875 
z
" id="ArialMT-79"/>
     </defs>
     <g style="fill:#262626;" transform="translate(91 79.130313)scale(0.1 -0.1)">
      <use xlink:href="#ArialMT-4d"/>
      <use x="83.300781" xlink:href="#ArialMT-63"/>
      <use x="133.300781" xlink:href="#ArialMT-43"/>
      <use x="205.517578" xlink:href="#ArialMT-61"/>
      <use x="261.132812" xlink:href="#ArialMT-72"/>
      <use x="294.433594" xlink:href="#ArialMT-74"/>
      <use x="322.216797" xlink:href="#ArialMT-68"/>
      <use x="377.832031" xlink:href="#ArialMT-79"/>
     </g>
    </g>
   </g>
  </g>
  <g id="axes_2">
   <g id="patch_7">
    <path d="M 54 256.32 
L 388.8 256.32 
L 388.8 174.186667 
L 54 174.186667 
z
" style="fill:#eaeaf2;"/>
   </g>
   <g id="matplotlib.axis_3">
    <g id="xtick_59">
     <g id="line2d_134">
      <path clip-path="url(#pa7fcc65917)" d="M 63.783117 256.32 
L 63.783117 174.186667 
" style="fill:none;stroke:#ffffff;stroke-linecap:round;stroke-width:0.8;"/>
     </g>
     <g id="line2d_135"/>
     <g id="text_21">
      <!-- 1950 -->
      <g style="fill:#262626;" transform="translate(52.661242 266.977812)scale(0.1 -0.1)">
       <use xlink:href="#ArialMT-31"/>
       <use x="55.615234" xlink:href="#ArialMT-39"/>
       <use x="111.230469" xlink:href="#ArialMT-35"/>
       <use x="166.845703" xlink:href="#ArialMT-30"/>
      </g>
     </g>
    </g>
    <g id="xtick_60">
     <g id="line2d_136">
      <path clip-path="url(#pa7fcc65917)" d="M 69.218182 256.32 
L 69.218182 174.186667 
" style="fill:none;stroke:#ffffff;stroke-linecap:round;stroke-width:0.8;"/>
     </g>
     <g id="line2d_137"/>
    </g>
    <g id="xtick_61">
     <g id="line2d_138">
      <path clip-path="url(#pa7fcc65917)" d="M 74.653247 256.32 
L 74.653247 174.186667 
" style="fill:none;stroke:#ffffff;stroke-linecap:round;stroke-width:0.8;"/>
     </g>
     <g id="line2d_139"/>
    </g>
    <g id="xtick_62">
     <g id="line2d_140">
      <path clip-path="url(#pa7fcc65917)" d="M 80.088312 256.32 
L 80.088312 174.186667 
" style="fill:none;stroke:#ffffff;stroke-linecap:round;stroke-width:0.8;"/>
     </g>
     <g id="line2d_141"/>
    </g>
    <g id="xtick_63">
     <g id="line2d_142">
      <path clip-path="url(#pa7fcc65917)" d="M 85.523377 256.32 
L 85.523377 174.186667 
" style="fill:none;stroke:#ffffff;stroke-linecap:round;stroke-width:0.8;"/>
     </g>
     <g id="line2d_143"/>
    </g>
    <g id="xtick_64">
     <g id="line2d_144">
      <path clip-path="url(#pa7fcc65917)" d="M 90.958442 256.32 
L 90.958442 174.186667 
" style="fill:none;stroke:#ffffff;stroke-linecap:round;stroke-width:0.8;"/>
     </g>
     <g id="line2d_145"/>
     <g id="text_22">
      <!-- 1955 -->
      <g style="fill:#262626;" transform="translate(79.836567 266.977812)scale(0.1 -0.1)">
       <use xlink:href="#ArialMT-31"/>
       <use x="55.615234" xlink:href="#ArialMT-39"/>
       <use x="111.230469" xlink:href="#ArialMT-35"/>
       <use x="166.845703" xlink:href="#ArialMT-35"/>
      </g>
     </g>
    </g>
    <g id="xtick_65">
     <g id="line2d_146">
      <path clip-path="url(#pa7fcc65917)" d="M 96.393506 256.32 
L 96.393506 174.186667 
" style="fill:none;stroke:#ffffff;stroke-linecap:round;stroke-width:0.8;"/>
     </g>
     <g id="line2d_147"/>
    </g>
    <g id="xtick_66">
     <g id="line2d_148">
      <path clip-path="url(#pa7fcc65917)" d="M 101.828571 256.32 
L 101.828571 174.186667 
" style="fill:none;stroke:#ffffff;stroke-linecap:round;stroke-width:0.8;"/>
     </g>
     <g id="line2d_149"/>
    </g>
    <g id="xtick_67">
     <g id="line2d_150">
      <path clip-path="url(#pa7fcc65917)" d="M 107.263636 256.32 
L 107.263636 174.186667 
" style="fill:none;stroke:#ffffff;stroke-linecap:round;stroke-width:0.8;"/>
     </g>
     <g id="line2d_151"/>
    </g>
    <g id="xtick_68">
     <g id="line2d_152">
      <path clip-path="url(#pa7fcc65917)" d="M 112.698701 256.32 
L 112.698701 174.186667 
" style="fill:none;stroke:#ffffff;stroke-linecap:round;stroke-width:0.8;"/>
     </g>
     <g id="line2d_153"/>
    </g>
    <g id="xtick_69">
     <g id="line2d_154">
      <path clip-path="url(#pa7fcc65917)" d="M 118.133766 256.32 
L 118.133766 174.186667 
" style="fill:none;stroke:#ffffff;stroke-linecap:round;stroke-width:0.8;"/>
     </g>
     <g id="line2d_155"/>
     <g id="text_23">
      <!-- 1960 -->
      <g style="fill:#262626;" transform="translate(107.011891 266.977812)scale(0.1 -0.1)">
       <use xlink:href="#ArialMT-31"/>
       <use x="55.615234" xlink:href="#ArialMT-39"/>
       <use x="111.230469" xlink:href="#ArialMT-36"/>
       <use x="166.845703" xlink:href="#ArialMT-30"/>
      </g>
     </g>
    </g>
    <g id="xtick_70">
     <g id="line2d_156">
      <path clip-path="url(#pa7fcc65917)" d="M 123.568831 256.32 
L 123.568831 174.186667 
" style="fill:none;stroke:#ffffff;stroke-linecap:round;stroke-width:0.8;"/>
     </g>
     <g id="line2d_157"/>
    </g>
    <g id="xtick_71">
     <g id="line2d_158">
      <path clip-path="url(#pa7fcc65917)" d="M 129.003896 256.32 
L 129.003896 174.186667 
" style="fill:none;stroke:#ffffff;stroke-linecap:round;stroke-width:0.8;"/>
     </g>
     <g id="line2d_159"/>
    </g>
    <g id="xtick_72">
     <g id="line2d_160">
      <path clip-path="url(#pa7fcc65917)" d="M 134.438961 256.32 
L 134.438961 174.186667 
" style="fill:none;stroke:#ffffff;stroke-linecap:round;stroke-width:0.8;"/>
     </g>
     <g id="line2d_161"/>
    </g>
    <g id="xtick_73">
     <g id="line2d_162">
      <path clip-path="url(#pa7fcc65917)" d="M 139.874026 256.32 
L 139.874026 174.186667 
" style="fill:none;stroke:#ffffff;stroke-linecap:round;stroke-width:0.8;"/>
     </g>
     <g id="line2d_163"/>
    </g>
    <g id="xtick_74">
     <g id="line2d_164">
      <path clip-path="url(#pa7fcc65917)" d="M 145.309091 256.32 
L 145.309091 174.186667 
" style="fill:none;stroke:#ffffff;stroke-linecap:round;stroke-width:0.8;"/>
     </g>
     <g id="line2d_165"/>
     <g id="text_24">
      <!-- 1965 -->
      <g style="fill:#262626;" transform="translate(134.187216 266.977812)scale(0.1 -0.1)">
       <use xlink:href="#ArialMT-31"/>
       <use x="55.615234" xlink:href="#ArialMT-39"/>
       <use x="111.230469" xlink:href="#ArialMT-36"/>
       <use x="166.845703" xlink:href="#ArialMT-35"/>
      </g>
     </g>
    </g>
    <g id="xtick_75">
     <g id="line2d_166">
      <path clip-path="url(#pa7fcc65917)" d="M 150.744156 256.32 
L 150.744156 174.186667 
" style="fill:none;stroke:#ffffff;stroke-linecap:round;stroke-width:0.8;"/>
     </g>
     <g id="line2d_167"/>
    </g>
    <g id="xtick_76">
     <g id="line2d_168">
      <path clip-path="url(#pa7fcc65917)" d="M 156.179221 256.32 
L 156.179221 174.186667 
" style="fill:none;stroke:#ffffff;stroke-linecap:round;stroke-width:0.8;"/>
     </g>
     <g id="line2d_169"/>
    </g>
    <g id="xtick_77">
     <g id="line2d_170">
      <path clip-path="url(#pa7fcc65917)" d="M 161.614286 256.32 
L 161.614286 174.186667 
" style="fill:none;stroke:#ffffff;stroke-linecap:round;stroke-width:0.8;"/>
     </g>
     <g id="line2d_171"/>
    </g>
    <g id="xtick_78">
     <g id="line2d_172">
      <path clip-path="url(#pa7fcc65917)" d="M 167.049351 256.32 
L 167.049351 174.186667 
" style="fill:none;stroke:#ffffff;stroke-linecap:round;stroke-width:0.8;"/>
     </g>
     <g id="line2d_173"/>
    </g>
    <g id="xtick_79">
     <g id="line2d_174">
      <path clip-path="url(#pa7fcc65917)" d="M 172.484416 256.32 
L 172.484416 174.186667 
" style="fill:none;stroke:#ffffff;stroke-linecap:round;stroke-width:0.8;"/>
     </g>
     <g id="line2d_175"/>
     <g id="text_25">
      <!-- 1970 -->
      <g style="fill:#262626;" transform="translate(161.362541 266.977812)scale(0.1 -0.1)">
       <use xlink:href="#ArialMT-31"/>
       <use x="55.615234" xlink:href="#ArialMT-39"/>
       <use x="111.230469" xlink:href="#ArialMT-37"/>
       <use x="166.845703" xlink:href="#ArialMT-30"/>
      </g>
     </g>
    </g>
    <g id="xtick_80">
     <g id="line2d_176">
      <path clip-path="url(#pa7fcc65917)" d="M 177.919481 256.32 
L 177.919481 174.186667 
" style="fill:none;stroke:#ffffff;stroke-linecap:round;stroke-width:0.8;"/>
     </g>
     <g id="line2d_177"/>
    </g>
    <g id="xtick_81">
     <g id="line2d_178">
      <path clip-path="url(#pa7fcc65917)" d="M 183.354545 256.32 
L 183.354545 174.186667 
" style="fill:none;stroke:#ffffff;stroke-linecap:round;stroke-width:0.8;"/>
     </g>
     <g id="line2d_179"/>
    </g>
    <g id="xtick_82">
     <g id="line2d_180">
      <path clip-path="url(#pa7fcc65917)" d="M 188.78961 256.32 
L 188.78961 174.186667 
" style="fill:none;stroke:#ffffff;stroke-linecap:round;stroke-width:0.8;"/>
     </g>
     <g id="line2d_181"/>
    </g>
    <g id="xtick_83">
     <g id="line2d_182">
      <path clip-path="url(#pa7fcc65917)" d="M 194.224675 256.32 
L 194.224675 174.186667 
" style="fill:none;stroke:#ffffff;stroke-linecap:round;stroke-width:0.8;"/>
     </g>
     <g id="line2d_183"/>
    </g>
    <g id="xtick_84">
     <g id="line2d_184">
      <path clip-path="url(#pa7fcc65917)" d="M 199.65974 256.32 
L 199.65974 174.186667 
" style="fill:none;stroke:#ffffff;stroke-linecap:round;stroke-width:0.8;"/>
     </g>
     <g id="line2d_185"/>
     <g id="text_26">
      <!-- 1975 -->
      <g style="fill:#262626;" transform="translate(188.537865 266.977812)scale(0.1 -0.1)">
       <use xlink:href="#ArialMT-31"/>
       <use x="55.615234" xlink:href="#ArialMT-39"/>
       <use x="111.230469" xlink:href="#ArialMT-37"/>
       <use x="166.845703" xlink:href="#ArialMT-35"/>
      </g>
     </g>
    </g>
    <g id="xtick_85">
     <g id="line2d_186">
      <path clip-path="url(#pa7fcc65917)" d="M 205.094805 256.32 
L 205.094805 174.186667 
" style="fill:none;stroke:#ffffff;stroke-linecap:round;stroke-width:0.8;"/>
     </g>
     <g id="line2d_187"/>
    </g>
    <g id="xtick_86">
     <g id="line2d_188">
      <path clip-path="url(#pa7fcc65917)" d="M 210.52987 256.32 
L 210.52987 174.186667 
" style="fill:none;stroke:#ffffff;stroke-linecap:round;stroke-width:0.8;"/>
     </g>
     <g id="line2d_189"/>
    </g>
    <g id="xtick_87">
     <g id="line2d_190">
      <path clip-path="url(#pa7fcc65917)" d="M 215.964935 256.32 
L 215.964935 174.186667 
" style="fill:none;stroke:#ffffff;stroke-linecap:round;stroke-width:0.8;"/>
     </g>
     <g id="line2d_191"/>
    </g>
    <g id="xtick_88">
     <g id="line2d_192">
      <path clip-path="url(#pa7fcc65917)" d="M 221.4 256.32 
L 221.4 174.186667 
" style="fill:none;stroke:#ffffff;stroke-linecap:round;stroke-width:0.8;"/>
     </g>
     <g id="line2d_193"/>
    </g>
    <g id="xtick_89">
     <g id="line2d_194">
      <path clip-path="url(#pa7fcc65917)" d="M 226.835065 256.32 
L 226.835065 174.186667 
" style="fill:none;stroke:#ffffff;stroke-linecap:round;stroke-width:0.8;"/>
     </g>
     <g id="line2d_195"/>
     <g id="text_27">
      <!-- 1980 -->
      <g style="fill:#262626;" transform="translate(215.71319 266.977812)scale(0.1 -0.1)">
       <use xlink:href="#ArialMT-31"/>
       <use x="55.615234" xlink:href="#ArialMT-39"/>
       <use x="111.230469" xlink:href="#ArialMT-38"/>
       <use x="166.845703" xlink:href="#ArialMT-30"/>
      </g>
     </g>
    </g>
    <g id="xtick_90">
     <g id="line2d_196">
      <path clip-path="url(#pa7fcc65917)" d="M 232.27013 256.32 
L 232.27013 174.186667 
" style="fill:none;stroke:#ffffff;stroke-linecap:round;stroke-width:0.8;"/>
     </g>
     <g id="line2d_197"/>
    </g>
    <g id="xtick_91">
     <g id="line2d_198">
      <path clip-path="url(#pa7fcc65917)" d="M 237.705195 256.32 
L 237.705195 174.186667 
" style="fill:none;stroke:#ffffff;stroke-linecap:round;stroke-width:0.8;"/>
     </g>
     <g id="line2d_199"/>
    </g>
    <g id="xtick_92">
     <g id="line2d_200">
      <path clip-path="url(#pa7fcc65917)" d="M 243.14026 256.32 
L 243.14026 174.186667 
" style="fill:none;stroke:#ffffff;stroke-linecap:round;stroke-width:0.8;"/>
     </g>
     <g id="line2d_201"/>
    </g>
    <g id="xtick_93">
     <g id="line2d_202">
      <path clip-path="url(#pa7fcc65917)" d="M 248.575325 256.32 
L 248.575325 174.186667 
" style="fill:none;stroke:#ffffff;stroke-linecap:round;stroke-width:0.8;"/>
     </g>
     <g id="line2d_203"/>
    </g>
    <g id="xtick_94">
     <g id="line2d_204">
      <path clip-path="url(#pa7fcc65917)" d="M 254.01039 256.32 
L 254.01039 174.186667 
" style="fill:none;stroke:#ffffff;stroke-linecap:round;stroke-width:0.8;"/>
     </g>
     <g id="line2d_205"/>
     <g id="text_28">
      <!-- 1985 -->
      <g style="fill:#262626;" transform="translate(242.888515 266.977812)scale(0.1 -0.1)">
       <use xlink:href="#ArialMT-31"/>
       <use x="55.615234" xlink:href="#ArialMT-39"/>
       <use x="111.230469" xlink:href="#ArialMT-38"/>
       <use x="166.845703" xlink:href="#ArialMT-35"/>
      </g>
     </g>
    </g>
    <g id="xtick_95">
     <g id="line2d_206">
      <path clip-path="url(#pa7fcc65917)" d="M 259.445455 256.32 
L 259.445455 174.186667 
" style="fill:none;stroke:#ffffff;stroke-linecap:round;stroke-width:0.8;"/>
     </g>
     <g id="line2d_207"/>
    </g>
    <g id="xtick_96">
     <g id="line2d_208">
      <path clip-path="url(#pa7fcc65917)" d="M 264.880519 256.32 
L 264.880519 174.186667 
" style="fill:none;stroke:#ffffff;stroke-linecap:round;stroke-width:0.8;"/>
     </g>
     <g id="line2d_209"/>
    </g>
    <g id="xtick_97">
     <g id="line2d_210">
      <path clip-path="url(#pa7fcc65917)" d="M 270.315584 256.32 
L 270.315584 174.186667 
" style="fill:none;stroke:#ffffff;stroke-linecap:round;stroke-width:0.8;"/>
     </g>
     <g id="line2d_211"/>
    </g>
    <g id="xtick_98">
     <g id="line2d_212">
      <path clip-path="url(#pa7fcc65917)" d="M 275.750649 256.32 
L 275.750649 174.186667 
" style="fill:none;stroke:#ffffff;stroke-linecap:round;stroke-width:0.8;"/>
     </g>
     <g id="line2d_213"/>
    </g>
    <g id="xtick_99">
     <g id="line2d_214">
      <path clip-path="url(#pa7fcc65917)" d="M 281.185714 256.32 
L 281.185714 174.186667 
" style="fill:none;stroke:#ffffff;stroke-linecap:round;stroke-width:0.8;"/>
     </g>
     <g id="line2d_215"/>
     <g id="text_29">
      <!-- 1990 -->
      <g style="fill:#262626;" transform="translate(270.063839 266.977812)scale(0.1 -0.1)">
       <use xlink:href="#ArialMT-31"/>
       <use x="55.615234" xlink:href="#ArialMT-39"/>
       <use x="111.230469" xlink:href="#ArialMT-39"/>
       <use x="166.845703" xlink:href="#ArialMT-30"/>
      </g>
     </g>
    </g>
    <g id="xtick_100">
     <g id="line2d_216">
      <path clip-path="url(#pa7fcc65917)" d="M 286.620779 256.32 
L 286.620779 174.186667 
" style="fill:none;stroke:#ffffff;stroke-linecap:round;stroke-width:0.8;"/>
     </g>
     <g id="line2d_217"/>
    </g>
    <g id="xtick_101">
     <g id="line2d_218">
      <path clip-path="url(#pa7fcc65917)" d="M 292.055844 256.32 
L 292.055844 174.186667 
" style="fill:none;stroke:#ffffff;stroke-linecap:round;stroke-width:0.8;"/>
     </g>
     <g id="line2d_219"/>
    </g>
    <g id="xtick_102">
     <g id="line2d_220">
      <path clip-path="url(#pa7fcc65917)" d="M 297.490909 256.32 
L 297.490909 174.186667 
" style="fill:none;stroke:#ffffff;stroke-linecap:round;stroke-width:0.8;"/>
     </g>
     <g id="line2d_221"/>
    </g>
    <g id="xtick_103">
     <g id="line2d_222">
      <path clip-path="url(#pa7fcc65917)" d="M 302.925974 256.32 
L 302.925974 174.186667 
" style="fill:none;stroke:#ffffff;stroke-linecap:round;stroke-width:0.8;"/>
     </g>
     <g id="line2d_223"/>
    </g>
    <g id="xtick_104">
     <g id="line2d_224">
      <path clip-path="url(#pa7fcc65917)" d="M 308.361039 256.32 
L 308.361039 174.186667 
" style="fill:none;stroke:#ffffff;stroke-linecap:round;stroke-width:0.8;"/>
     </g>
     <g id="line2d_225"/>
     <g id="text_30">
      <!-- 1995 -->
      <g style="fill:#262626;" transform="translate(297.239164 266.977812)scale(0.1 -0.1)">
       <use xlink:href="#ArialMT-31"/>
       <use x="55.615234" xlink:href="#ArialMT-39"/>
       <use x="111.230469" xlink:href="#ArialMT-39"/>
       <use x="166.845703" xlink:href="#ArialMT-35"/>
      </g>
     </g>
    </g>
    <g id="xtick_105">
     <g id="line2d_226">
      <path clip-path="url(#pa7fcc65917)" d="M 313.796104 256.32 
L 313.796104 174.186667 
" style="fill:none;stroke:#ffffff;stroke-linecap:round;stroke-width:0.8;"/>
     </g>
     <g id="line2d_227"/>
    </g>
    <g id="xtick_106">
     <g id="line2d_228">
      <path clip-path="url(#pa7fcc65917)" d="M 319.231169 256.32 
L 319.231169 174.186667 
" style="fill:none;stroke:#ffffff;stroke-linecap:round;stroke-width:0.8;"/>
     </g>
     <g id="line2d_229"/>
    </g>
    <g id="xtick_107">
     <g id="line2d_230">
      <path clip-path="url(#pa7fcc65917)" d="M 324.666234 256.32 
L 324.666234 174.186667 
" style="fill:none;stroke:#ffffff;stroke-linecap:round;stroke-width:0.8;"/>
     </g>
     <g id="line2d_231"/>
    </g>
    <g id="xtick_108">
     <g id="line2d_232">
      <path clip-path="url(#pa7fcc65917)" d="M 330.101299 256.32 
L 330.101299 174.186667 
" style="fill:none;stroke:#ffffff;stroke-linecap:round;stroke-width:0.8;"/>
     </g>
     <g id="line2d_233"/>
    </g>
    <g id="xtick_109">
     <g id="line2d_234">
      <path clip-path="url(#pa7fcc65917)" d="M 335.536364 256.32 
L 335.536364 174.186667 
" style="fill:none;stroke:#ffffff;stroke-linecap:round;stroke-width:0.8;"/>
     </g>
     <g id="line2d_235"/>
     <g id="text_31">
      <!-- 2000 -->
      <g style="fill:#262626;" transform="translate(324.414489 266.977812)scale(0.1 -0.1)">
       <use xlink:href="#ArialMT-32"/>
       <use x="55.615234" xlink:href="#ArialMT-30"/>
       <use x="111.230469" xlink:href="#ArialMT-30"/>
       <use x="166.845703" xlink:href="#ArialMT-30"/>
      </g>
     </g>
    </g>
    <g id="xtick_110">
     <g id="line2d_236">
      <path clip-path="url(#pa7fcc65917)" d="M 340.971429 256.32 
L 340.971429 174.186667 
" style="fill:none;stroke:#ffffff;stroke-linecap:round;stroke-width:0.8;"/>
     </g>
     <g id="line2d_237"/>
    </g>
    <g id="xtick_111">
     <g id="line2d_238">
      <path clip-path="url(#pa7fcc65917)" d="M 346.406494 256.32 
L 346.406494 174.186667 
" style="fill:none;stroke:#ffffff;stroke-linecap:round;stroke-width:0.8;"/>
     </g>
     <g id="line2d_239"/>
    </g>
    <g id="xtick_112">
     <g id="line2d_240">
      <path clip-path="url(#pa7fcc65917)" d="M 351.841558 256.32 
L 351.841558 174.186667 
" style="fill:none;stroke:#ffffff;stroke-linecap:round;stroke-width:0.8;"/>
     </g>
     <g id="line2d_241"/>
    </g>
    <g id="xtick_113">
     <g id="line2d_242">
      <path clip-path="url(#pa7fcc65917)" d="M 357.276623 256.32 
L 357.276623 174.186667 
" style="fill:none;stroke:#ffffff;stroke-linecap:round;stroke-width:0.8;"/>
     </g>
     <g id="line2d_243"/>
    </g>
    <g id="xtick_114">
     <g id="line2d_244">
      <path clip-path="url(#pa7fcc65917)" d="M 362.711688 256.32 
L 362.711688 174.186667 
" style="fill:none;stroke:#ffffff;stroke-linecap:round;stroke-width:0.8;"/>
     </g>
     <g id="line2d_245"/>
     <g id="text_32">
      <!-- 2005 -->
      <g style="fill:#262626;" transform="translate(351.589813 266.977812)scale(0.1 -0.1)">
       <use xlink:href="#ArialMT-32"/>
       <use x="55.615234" xlink:href="#ArialMT-30"/>
       <use x="111.230469" xlink:href="#ArialMT-30"/>
       <use x="166.845703" xlink:href="#ArialMT-35"/>
      </g>
     </g>
    </g>
    <g id="xtick_115">
     <g id="line2d_246">
      <path clip-path="url(#pa7fcc65917)" d="M 368.146753 256.32 
L 368.146753 174.186667 
" style="fill:none;stroke:#ffffff;stroke-linecap:round;stroke-width:0.8;"/>
     </g>
     <g id="line2d_247"/>
    </g>
    <g id="xtick_116">
     <g id="line2d_248">
      <path clip-path="url(#pa7fcc65917)" d="M 373.581818 256.32 
L 373.581818 174.186667 
" style="fill:none;stroke:#ffffff;stroke-linecap:round;stroke-width:0.8;"/>
     </g>
     <g id="line2d_249"/>
    </g>
   </g>
   <g id="matplotlib.axis_4">
    <g id="ytick_5">
     <g id="line2d_250">
      <path clip-path="url(#pa7fcc65917)" d="M 54 252.586667 
L 388.8 252.586667 
" style="fill:none;stroke:#ffffff;stroke-linecap:round;stroke-width:0.8;"/>
     </g>
     <g id="line2d_251"/>
     <g id="text_33">
      <!-- 0 -->
      <g style="fill:#262626;" transform="translate(44.939062 256.165573)scale(0.1 -0.1)">
       <use xlink:href="#ArialMT-30"/>
      </g>
     </g>
    </g>
    <g id="ytick_6">
     <g id="line2d_252">
      <path clip-path="url(#pa7fcc65917)" d="M 54 225.967534 
L 388.8 225.967534 
" style="fill:none;stroke:#ffffff;stroke-linecap:round;stroke-width:0.8;"/>
     </g>
     <g id="line2d_253"/>
     <g id="text_34">
      <!-- 200 -->
      <g style="fill:#262626;" transform="translate(33.817188 229.54644)scale(0.1 -0.1)">
       <use xlink:href="#ArialMT-32"/>
       <use x="55.615234" xlink:href="#ArialMT-30"/>
       <use x="111.230469" xlink:href="#ArialMT-30"/>
      </g>
     </g>
    </g>
    <g id="ytick_7">
     <g id="line2d_254">
      <path clip-path="url(#pa7fcc65917)" d="M 54 199.348402 
L 388.8 199.348402 
" style="fill:none;stroke:#ffffff;stroke-linecap:round;stroke-width:0.8;"/>
     </g>
     <g id="line2d_255"/>
     <g id="text_35">
      <!-- 400 -->
      <defs>
       <path d="M 32.328125 0 
L 32.328125 17.140625 
L 1.265625 17.140625 
L 1.265625 25.203125 
L 33.9375 71.578125 
L 41.109375 71.578125 
L 41.109375 25.203125 
L 50.78125 25.203125 
L 50.78125 17.140625 
L 41.109375 17.140625 
L 41.109375 0 
z
M 32.328125 25.203125 
L 32.328125 57.46875 
L 9.90625 25.203125 
z
" id="ArialMT-34"/>
      </defs>
      <g style="fill:#262626;" transform="translate(33.817188 202.927308)scale(0.1 -0.1)">
       <use xlink:href="#ArialMT-34"/>
       <use x="55.615234" xlink:href="#ArialMT-30"/>
       <use x="111.230469" xlink:href="#ArialMT-30"/>
      </g>
     </g>
    </g>
   </g>
   <g id="line2d_256">
    <path clip-path="url(#pa7fcc65917)" d="M 69.218182 252.586667 
L 74.653247 252.586667 
L 80.088312 252.586667 
L 85.523377 252.586667 
L 90.958442 252.586667 
L 96.393506 252.586667 
L 101.828571 252.586667 
L 107.263636 252.586667 
L 112.698701 252.586667 
L 118.133766 252.453571 
L 123.568831 251.987736 
L 129.003896 251.122614 
L 134.438961 250.124397 
L 139.874026 248.460701 
L 145.309091 247.329388 
L 150.744156 248.061414 
L 156.179221 249.059632 
L 161.614286 247.861771 
L 167.049351 246.797005 
L 172.484416 247.196292 
L 177.919481 247.462484 
L 183.354545 247.595579 
L 188.78961 248.261058 
L 194.224675 248.394153 
L 199.65974 247.329388 
L 205.094805 247.329388 
L 210.52987 248.394153 
L 215.964935 249.325823 
L 221.4 249.458919 
L 226.835065 250.124397 
L 232.27013 248.926536 
L 237.705195 246.996649 
L 243.14026 248.127962 
L 248.575325 247.595579 
L 254.01039 248.127962 
L 259.445455 248.993084 
L 264.880519 248.061414 
L 270.315584 248.79344 
L 275.750649 249.392371 
L 281.185714 249.126179 
L 286.620779 248.993084 
L 292.055844 249.858206 
L 297.490909 249.392371 
L 302.925974 249.525466 
L 308.361039 250.390588 
L 313.796104 250.257493 
L 319.231169 250.057849 
L 324.666234 250.523684 
L 330.101299 250.523684 
L 335.536364 249.924753 
L 340.971429 250.257493 
L 346.406494 250.257493 
L 351.841558 249.392371 
L 357.276623 247.063197 
L 362.711688 245.399501 
L 368.146753 246.198075 
L 373.581818 246.198075 
" style="fill:none;stroke:#000000;stroke-dasharray:5.55,2.4;stroke-dashoffset:0;stroke-width:1.5;"/>
   </g>
   <g id="line2d_257">
    <path clip-path="url(#pa7fcc65917)" d="M 69.218182 252.586667 
L 74.653247 252.586667 
L 80.088312 252.586667 
L 85.523377 252.586667 
L 90.958442 252.586667 
L 96.393506 252.586667 
L 101.828571 252.586667 
L 107.263636 252.586667 
L 112.698701 252.586667 
L 118.133766 252.453571 
L 123.568831 252.18738 
L 129.003896 252.120832 
L 134.438961 252.054284 
L 139.874026 251.189162 
L 145.309091 250.390588 
L 150.744156 251.25571 
L 156.179221 251.721545 
L 161.614286 250.989519 
L 167.049351 250.989519 
L 172.484416 251.056067 
L 177.919481 250.590232 
L 183.354545 249.924753 
L 188.78961 250.124397 
L 194.224675 250.124397 
L 199.65974 249.392371 
L 205.094805 248.79344 
L 210.52987 248.261058 
L 215.964935 248.061414 
L 221.4 247.795223 
L 226.835065 247.728675 
L 232.27013 246.331171 
L 237.705195 244.135092 
L 243.14026 243.203422 
L 248.575325 239.942579 
L 254.01039 235.018039 
L 259.445455 230.69243 
L 264.880519 225.302056 
L 270.315584 218.846916 
L 275.750649 211.593203 
L 281.185714 206.003185 
L 286.620779 199.681141 
L 292.055844 195.754819 
L 297.490909 190.963375 
L 302.925974 185.107166 
L 308.361039 183.243827 
L 313.796104 177.92 
L 319.231169 179.783339 
L 324.666234 185.439905 
L 330.101299 184.37514 
L 335.536364 185.306809 
L 340.971429 190.364444 
L 346.406494 189.499323 
L 351.841558 187.769079 
L 357.276623 194.357314 
L 362.711688 195.288984 
L 368.146753 189.765514 
L 373.581818 188.567653 
" style="fill:none;stroke:#000000;stroke-linecap:round;stroke-width:1.5;"/>
   </g>
   <g id="line2d_258">
    <path clip-path="url(#pa7fcc65917)" d="M 69.218182 252.586667 
L 74.653247 252.586667 
L 80.088312 252.586667 
L 85.523377 252.586667 
L 90.958442 252.586667 
L 96.393506 252.586667 
L 101.828571 252.586667 
L 107.263636 252.586667 
L 112.698701 252.586667 
L 118.133766 252.586667 
L 123.568831 252.586667 
L 129.003896 252.586667 
L 134.438961 252.586667 
L 139.874026 252.586667 
L 145.309091 252.520119 
L 150.744156 252.453571 
L 156.179221 252.320475 
L 161.614286 251.987736 
L 167.049351 251.921188 
L 172.484416 252.253928 
L 177.919481 251.921188 
L 183.354545 251.521901 
L 188.78961 251.788093 
L 194.224675 252.120832 
L 199.65974 252.18738 
L 205.094805 251.921188 
L 210.52987 251.654997 
L 215.964935 251.122614 
L 221.4 251.056067 
L 226.835065 251.588449 
L 232.27013 250.723327 
L 237.705195 249.458919 
L 243.14026 249.192727 
L 248.575325 249.259275 
L 254.01039 249.126179 
L 259.445455 249.059632 
L 264.880519 247.928318 
L 270.315584 247.728675 
L 275.750649 248.327605 
L 281.185714 248.127962 
L 286.620779 248.327605 
L 292.055844 247.329388 
L 297.490909 247.662127 
L 302.925974 249.126179 
L 308.361039 248.593797 
L 313.796104 247.662127 
L 319.231169 247.928318 
L 324.666234 248.19451 
L 330.101299 247.861771 
L 335.536364 248.127962 
L 340.971429 249.525466 
L 346.406494 250.390588 
L 351.841558 250.457136 
L 357.276623 250.124397 
L 362.711688 248.79344 
L 368.146753 248.061414 
L 373.581818 248.261058 
" style="fill:none;stroke:#000000;stroke-dasharray:1.5,2.475;stroke-dashoffset:0;stroke-width:1.5;"/>
   </g>
   <g id="patch_8">
    <path d="M 54 256.32 
L 54 174.186667 
" style="fill:none;"/>
   </g>
   <g id="patch_9">
    <path d="M 388.8 256.32 
L 388.8 174.186667 
" style="fill:none;"/>
   </g>
   <g id="patch_10">
    <path d="M 54 256.32 
L 388.8 256.32 
" style="fill:none;"/>
   </g>
   <g id="patch_11">
    <path d="M 54 174.186667 
L 388.8 174.186667 
" style="fill:none;"/>
   </g>
   <g id="text_36">
    <!-- In article title -->
    <defs>
     <path d="M 9.328125 0 
L 9.328125 71.578125 
L 18.796875 71.578125 
L 18.796875 0 
z
" id="ArialMT-49"/>
     <path d="M 6.390625 0 
L 6.390625 71.578125 
L 15.1875 71.578125 
L 15.1875 0 
z
" id="ArialMT-6c"/>
    </defs>
    <g style="fill:#262626;" transform="translate(187.722188 168.186667)scale(0.12 -0.12)">
     <use xlink:href="#ArialMT-49"/>
     <use x="27.783203" xlink:href="#ArialMT-6e"/>
     <use x="83.398438" xlink:href="#ArialMT-20"/>
     <use x="111.181641" xlink:href="#ArialMT-61"/>
     <use x="166.796875" xlink:href="#ArialMT-72"/>
     <use x="200.097656" xlink:href="#ArialMT-74"/>
     <use x="227.880859" xlink:href="#ArialMT-69"/>
     <use x="250.097656" xlink:href="#ArialMT-63"/>
     <use x="300.097656" xlink:href="#ArialMT-6c"/>
     <use x="322.314453" xlink:href="#ArialMT-65"/>
     <use x="377.929688" xlink:href="#ArialMT-20"/>
     <use x="405.712891" xlink:href="#ArialMT-74"/>
     <use x="433.496094" xlink:href="#ArialMT-69"/>
     <use x="455.712891" xlink:href="#ArialMT-74"/>
     <use x="483.496094" xlink:href="#ArialMT-6c"/>
     <use x="505.712891" xlink:href="#ArialMT-65"/>
    </g>
   </g>
   <g id="legend_2">
    <g id="line2d_259">
     <path d="M 63 186.844479 
L 83 186.844479 
" style="fill:none;stroke:#000000;stroke-dasharray:5.55,2.4;stroke-dashoffset:0;stroke-width:1.5;"/>
    </g>
    <g id="line2d_260"/>
    <g id="text_37">
     <!-- Algol -->
     <defs>
      <path d="M -0.140625 0 
L 27.34375 71.578125 
L 37.546875 71.578125 
L 66.84375 0 
L 56.0625 0 
L 47.703125 21.6875 
L 17.78125 21.6875 
L 9.90625 0 
z
M 20.515625 29.390625 
L 44.78125 29.390625 
L 37.3125 49.21875 
Q 33.890625 58.25 32.234375 64.0625 
Q 30.859375 57.171875 28.375 50.390625 
z
" id="ArialMT-41"/>
      <path d="M 4.984375 -4.296875 
L 13.53125 -5.5625 
Q 14.0625 -9.515625 16.5 -11.328125 
Q 19.78125 -13.765625 25.4375 -13.765625 
Q 31.546875 -13.765625 34.859375 -11.328125 
Q 38.1875 -8.890625 39.359375 -4.5 
Q 40.046875 -1.8125 39.984375 6.78125 
Q 34.234375 0 25.640625 0 
Q 14.9375 0 9.078125 7.71875 
Q 3.21875 15.4375 3.21875 26.21875 
Q 3.21875 33.640625 5.90625 39.90625 
Q 8.59375 46.1875 13.6875 49.609375 
Q 18.796875 53.03125 25.6875 53.03125 
Q 34.859375 53.03125 40.828125 45.609375 
L 40.828125 51.859375 
L 48.921875 51.859375 
L 48.921875 7.03125 
Q 48.921875 -5.078125 46.453125 -10.125 
Q 44 -15.1875 38.640625 -18.109375 
Q 33.296875 -21.046875 25.484375 -21.046875 
Q 16.21875 -21.046875 10.5 -16.875 
Q 4.78125 -12.703125 4.984375 -4.296875 
z
M 12.25 26.859375 
Q 12.25 16.65625 16.296875 11.96875 
Q 20.359375 7.28125 26.46875 7.28125 
Q 32.515625 7.28125 36.609375 11.9375 
Q 40.71875 16.609375 40.71875 26.5625 
Q 40.71875 36.078125 36.5 40.90625 
Q 32.28125 45.75 26.3125 45.75 
Q 20.453125 45.75 16.34375 40.984375 
Q 12.25 36.234375 12.25 26.859375 
z
" id="ArialMT-67"/>
     </defs>
     <g style="fill:#262626;" transform="translate(91 190.344479)scale(0.1 -0.1)">
      <use xlink:href="#ArialMT-41"/>
      <use x="66.699219" xlink:href="#ArialMT-6c"/>
      <use x="88.916016" xlink:href="#ArialMT-67"/>
      <use x="144.53125" xlink:href="#ArialMT-6f"/>
      <use x="200.146484" xlink:href="#ArialMT-6c"/>
     </g>
    </g>
    <g id="line2d_261">
     <path d="M 63 201.106979 
L 83 201.106979 
" style="fill:none;stroke:#000000;stroke-linecap:round;stroke-width:1.5;"/>
    </g>
    <g id="line2d_262"/>
    <g id="text_38">
     <!-- Fortran -->
     <defs>
      <path d="M 8.203125 0 
L 8.203125 71.578125 
L 56.5 71.578125 
L 56.5 63.140625 
L 17.671875 63.140625 
L 17.671875 40.96875 
L 51.265625 40.96875 
L 51.265625 32.515625 
L 17.671875 32.515625 
L 17.671875 0 
z
" id="ArialMT-46"/>
     </defs>
     <g style="fill:#262626;" transform="translate(91 204.606979)scale(0.1 -0.1)">
      <use xlink:href="#ArialMT-46"/>
      <use x="61.083984" xlink:href="#ArialMT-6f"/>
      <use x="116.699219" xlink:href="#ArialMT-72"/>
      <use x="150" xlink:href="#ArialMT-74"/>
      <use x="177.783203" xlink:href="#ArialMT-72"/>
      <use x="211.083984" xlink:href="#ArialMT-61"/>
      <use x="266.699219" xlink:href="#ArialMT-6e"/>
     </g>
    </g>
    <g id="line2d_263">
     <path d="M 63 215.252292 
L 83 215.252292 
" style="fill:none;stroke:#000000;stroke-dasharray:1.5,2.475;stroke-dashoffset:0;stroke-width:1.5;"/>
    </g>
    <g id="line2d_264"/>
    <g id="text_39">
     <!-- Lisp -->
     <defs>
      <path d="M 7.328125 0 
L 7.328125 71.578125 
L 16.796875 71.578125 
L 16.796875 8.453125 
L 52.046875 8.453125 
L 52.046875 0 
z
" id="ArialMT-4c"/>
     </defs>
     <g style="fill:#262626;" transform="translate(91 218.752292)scale(0.1 -0.1)">
      <use xlink:href="#ArialMT-4c"/>
      <use x="55.615234" xlink:href="#ArialMT-69"/>
      <use x="77.832031" xlink:href="#ArialMT-73"/>
      <use x="127.832031" xlink:href="#ArialMT-70"/>
     </g>
    </g>
   </g>
  </g>
 </g>
 <defs>
  <clipPath id="p6f6d49699a">
   <rect height="82.133333" width="334.8" x="54" y="34.56"/>
  </clipPath>
  <clipPath id="pa7fcc65917">
   <rect height="82.133333" width="334.8" x="54" y="174.186667"/>
  </clipPath>
 </defs>
</svg>
